<svg width="407" height="191" viewBox="0 0 407 191" fill="none" xmlns="http://www.w3.org/2000/svg">
  <path opacity="0.35" d="M64.9518 90.2366L199.061 11.0028C202.141 9.13628 206.061 9.13628 209.14 11.0028L342.037 89.5833C344.93 91.2631 344.93 95.4628 342.037 97.236L209.514 174.697C206.247 176.656 202.141 176.656 198.781 174.697L65.0451 97.8893C62.0587 96.2094 62.0587 92.0097 64.9518 90.2366Z" stroke="url(#paint0_linear)" stroke-width="0.2" stroke-miterlimit="10" stroke-linejoin="round"/>
  <path opacity="0.35" d="M208.301 19.0288L331.118 90.1433C333.544 91.5431 333.544 94.9962 331.118 96.3961L208.394 167.604C205.781 169.097 202.608 169.097 199.995 167.604L76.4309 96.8627C74.2844 95.6495 74.2844 92.5697 76.4309 91.2632L200.088 19.0288C202.608 17.5356 205.781 17.5356 208.301 19.0288Z" stroke="url(#paint1_linear)" stroke-width="0.31" stroke-miterlimit="10" stroke-linejoin="round"/>
  <path opacity="0.35" d="M206.621 26.0286L318.892 90.9834C321.039 92.1967 321.039 95.3698 318.892 96.583L206.808 161.258C205.221 162.191 203.168 162.191 201.581 161.258L89.3101 96.863C87.3502 95.7431 87.3502 93.0366 89.3101 91.9167L201.768 26.0286C203.261 25.0953 205.128 25.0953 206.621 26.0286Z" stroke="url(#paint2_linear)" stroke-width="0.42" stroke-miterlimit="10" stroke-linejoin="round"/>
  <path opacity="0.4" d="M206.434 33.3075L304.426 91.1696C306.386 92.2895 306.386 95.0893 304.426 96.2092L206.247 154.351C205.034 155.098 203.447 155.098 202.234 154.351L102.842 96.7691C100.882 95.6492 100.882 92.8495 102.842 91.7295L201.954 33.4008C203.354 32.4675 205.034 32.4675 206.434 33.3075Z" stroke="url(#paint3_linear)" stroke-width="0.53" stroke-miterlimit="10" stroke-linejoin="round"/>
  <path opacity="0.5" d="M205.781 40.4936L290.707 92.4761C292.107 93.3161 292.107 95.4626 290.707 96.3025L205.221 146.512C204.567 146.885 203.727 146.885 203.167 146.512L116.094 96.0225C114.601 95.1826 114.601 93.0361 116.094 92.1962L202.607 40.4936C203.541 39.9336 204.754 39.9336 205.781 40.4936Z" stroke="url(#paint4_linear)" stroke-width="0.64" stroke-miterlimit="10" stroke-linejoin="round"/>
  <path opacity="0.6" d="M128.507 92.5697L200.461 49.8264C202.794 48.4265 205.687 48.4265 208.02 49.8264L278.201 92.663C279.415 93.4096 279.415 95.1828 278.201 95.9295L205.501 138.206C204.754 138.579 203.914 138.673 203.167 138.206L128.693 95.7428C127.2 95.1828 127.2 93.3163 128.507 92.5697Z" stroke="url(#paint5_linear)" stroke-width="0.75" stroke-miterlimit="10" stroke-linejoin="round"/>
  <path d="M202.141 21.7351C202.141 22.0151 202.328 22.2018 202.607 22.2951C202.887 22.4817 203.167 22.5751 203.447 22.5751C203.727 22.5751 204.101 22.4817 204.381 22.2951C204.567 22.1084 204.754 21.9218 204.754 21.6418C204.754 21.3618 204.567 21.1752 204.381 21.0819C203.914 20.7086 203.167 20.7086 202.607 21.0819C202.328 21.2685 202.141 21.4552 202.141 21.7351Z" fill="url(#paint6_linear)"/>
  <path d="M211.94 25.5615C211.66 25.3748 211.38 25.2815 211.007 25.2815C210.727 25.2815 210.353 25.3748 210.073 25.5615C209.887 25.7481 209.7 25.9348 209.7 26.2148C209.7 26.4947 209.887 26.6814 210.167 26.7747C210.353 26.868 210.727 26.9614 211.007 26.9614C211.287 26.9614 211.66 26.9614 211.847 26.7747C212.127 26.6814 212.407 26.4947 212.407 26.2148C212.407 25.9348 212.22 25.6548 211.94 25.5615Z" fill="url(#paint7_linear)"/>
  <path d="M217.913 30.0412C217.726 30.2279 217.633 30.4145 217.633 30.6945C217.633 30.9745 217.726 31.1611 218.006 31.2544C218.286 31.4411 218.566 31.5344 218.94 31.5344C219.22 31.5344 219.593 31.4411 219.873 31.2544C220.06 31.0678 220.246 30.8811 220.246 30.6012C220.246 30.3212 220.06 30.1345 219.873 30.0412C219.593 29.8546 219.313 29.7612 219.033 29.7612C218.473 29.7612 218.193 29.8546 217.913 30.0412Z" fill="url(#paint8_linear)"/>
  <path d="M225.752 35.8276C226.032 36.0142 226.312 36.1075 226.685 36.1075C226.965 36.1075 227.339 36.0142 227.619 35.8276C227.805 35.6409 227.992 35.4543 227.992 35.1743C227.992 34.8943 227.805 34.7077 227.619 34.6143C227.152 34.241 226.405 34.241 225.846 34.6143C225.752 34.6143 225.659 34.7077 225.566 34.801C225.472 34.8943 225.472 34.9876 225.472 35.1743C225.286 35.4543 225.472 35.6409 225.752 35.8276Z" fill="url(#paint9_linear)"/>
  <path d="M233.032 39.6538C233.032 39.9338 233.219 40.1204 233.405 40.3071C233.685 40.4937 233.965 40.587 234.245 40.587C234.525 40.587 234.898 40.4937 235.178 40.3071C235.365 40.1204 235.552 39.9338 235.552 39.6538C235.552 39.3738 235.365 39.1871 235.178 39.0938C234.898 38.9072 234.618 38.8138 234.338 38.8138C234.058 38.8138 233.685 38.9072 233.498 39.0938C233.219 39.0938 233.032 39.3738 233.032 39.6538Z" fill="url(#paint10_linear)"/>
  <path d="M241.151 44.6933C241.431 44.8799 241.711 44.9733 242.084 44.9733C242.457 44.9733 242.737 44.8799 243.017 44.6933C243.204 44.5066 243.391 44.32 243.391 44.04C243.391 43.76 243.204 43.5734 243.017 43.4801C242.737 43.2934 242.457 43.2001 242.177 43.2001C241.897 43.2001 241.524 43.2934 241.337 43.4801C241.058 43.5734 240.871 43.76 240.871 44.04C240.871 44.1333 240.964 44.32 241.058 44.4133C240.964 44.5066 241.058 44.6 241.151 44.6933Z" fill="url(#paint11_linear)"/>
  <path d="M250.763 49.08C251.043 48.8934 251.23 48.7067 251.23 48.4267C251.23 48.1467 251.043 47.9601 250.857 47.8668C250.577 47.6801 250.297 47.5868 250.017 47.5868C249.737 47.5868 249.363 47.6801 249.084 47.8668C248.99 47.9601 248.804 48.0534 248.71 48.1467C248.617 48.2401 248.524 48.3334 248.524 48.5201C248.524 48.7067 248.617 48.8 248.71 48.8934C248.804 48.9867 248.897 49.08 249.084 49.08C249.457 49.4533 250.203 49.4533 250.763 49.08Z" fill="url(#paint12_linear)"/>
  <path d="M256.643 53.5593C256.923 53.746 257.203 53.8393 257.483 53.8393C257.763 53.8393 258.136 53.746 258.416 53.5593C258.603 53.3727 258.789 53.186 258.789 52.906C258.789 52.6261 258.603 52.4394 258.323 52.3461C258.136 52.2527 257.763 52.1594 257.483 52.1594C257.203 52.1594 256.83 52.1594 256.55 52.3461C256.27 52.4394 256.176 52.7194 256.176 52.9994C256.27 53.2793 256.456 53.466 256.643 53.5593Z" fill="url(#paint13_linear)"/>
  <path d="M263.922 57.479C263.922 57.7589 264.109 57.9456 264.296 58.1323C264.576 58.3189 264.855 58.4122 265.135 58.4122C265.415 58.4122 265.789 58.3189 266.069 58.1323C266.255 57.9456 266.442 57.7589 266.442 57.479C266.442 57.199 266.255 57.0123 266.069 56.919C265.789 56.7324 265.509 56.639 265.229 56.639C264.949 56.639 264.576 56.7324 264.389 56.919C264.109 57.0123 263.922 57.199 263.922 57.479Z" fill="url(#paint14_linear)"/>
  <path d="M272.042 62.5185C272.602 62.8918 273.255 62.8918 273.815 62.5185C274.002 62.3318 274.188 62.1452 274.188 61.8652C274.188 61.5852 274.002 61.3986 273.815 61.3052C273.535 61.1186 273.255 61.0253 272.975 61.0253C272.695 61.0253 272.322 61.1186 272.135 61.3052C271.855 61.3986 271.762 61.5852 271.762 61.8652C271.668 62.1452 271.855 62.3318 272.042 62.5185Z" fill="url(#paint15_linear)"/>
  <path d="M279.415 66.3448C279.415 66.6248 279.601 66.8115 279.788 66.9981C280.068 67.1848 280.348 67.2781 280.628 67.2781C280.908 67.2781 281.281 67.1848 281.561 66.9981C281.748 66.8115 281.934 66.6248 281.934 66.3448C281.934 66.0648 281.748 65.8782 281.561 65.7849C281.281 65.5982 281.001 65.5049 280.721 65.5049C280.441 65.5049 280.068 65.5982 279.881 65.7849C279.601 65.8782 279.415 66.0648 279.415 66.3448Z" fill="url(#paint16_linear)"/>
  <path d="M287.161 70.8244C287.161 71.1044 287.347 71.2911 287.627 71.4777C287.907 71.6644 288.187 71.7577 288.467 71.7577C288.747 71.7577 289.12 71.6644 289.4 71.4777C289.587 71.2911 289.774 71.1044 289.774 70.8244C289.774 70.5445 289.587 70.3578 289.4 70.2645C289.12 70.0778 288.841 69.9845 288.561 69.9845C288.281 69.9845 287.907 70.0778 287.721 70.2645C287.347 70.3578 287.161 70.5445 287.161 70.8244Z" fill="url(#paint17_linear)"/>
  <path d="M297.053 75.9577C297.333 75.771 297.52 75.5844 297.52 75.3044C297.52 75.0244 297.333 74.8378 297.147 74.7445C296.867 74.5578 296.587 74.4645 296.307 74.4645C296.027 74.4645 295.653 74.5578 295.467 74.7445C295.28 74.8378 295.094 75.0244 295.094 75.3044C295.094 75.5844 295.28 75.771 295.467 75.9577C295.747 76.331 296.493 76.331 297.053 75.9577Z" fill="url(#paint18_linear)"/>
  <path d="M302.933 80.4373C303.213 80.624 303.493 80.7173 303.866 80.7173C304.24 80.7173 304.52 80.624 304.8 80.4373C304.986 80.2507 305.173 80.064 305.173 79.784C305.173 79.504 304.986 79.3174 304.8 79.2241C304.52 79.0374 304.24 78.9441 303.96 78.9441C303.68 78.9441 303.306 79.0374 303.12 79.2241C303.026 79.2241 302.933 79.3174 302.84 79.4107C302.746 79.504 302.747 79.5974 302.747 79.784C302.56 80.064 302.746 80.2507 302.933 80.4373Z" fill="url(#paint19_linear)"/>
  <path d="M312.452 83.6102C312.172 83.4235 311.892 83.3302 311.612 83.3302C311.332 83.3302 310.959 83.4235 310.679 83.6102C310.492 83.7968 310.305 83.9835 310.305 84.2635C310.305 84.5434 310.492 84.7301 310.679 84.8234C310.959 85.0101 311.239 85.1034 311.519 85.1034C311.799 85.1034 312.172 85.0101 312.359 84.8234C312.639 84.7301 312.825 84.5434 312.825 84.1701C312.919 83.9835 312.732 83.7035 312.452 83.6102Z" fill="url(#paint20_linear)"/>
  <path d="M194.488 26.2149C194.488 26.4949 194.674 26.6816 194.861 26.8682C195.141 27.0549 195.421 27.1482 195.701 27.1482C195.981 27.1482 196.354 27.0549 196.634 26.8682C196.821 26.6816 197.007 26.4949 197.007 26.2149C197.007 25.935 196.821 25.7483 196.634 25.655C196.168 25.2817 195.421 25.2817 194.861 25.655C194.674 25.7483 194.488 25.935 194.488 26.2149Z" fill="url(#paint21_linear)"/>
  <path d="M202.141 30.6945C202.141 30.9745 202.328 31.1611 202.514 31.2544C202.794 31.4411 203.074 31.5344 203.354 31.5344C203.634 31.5344 204.007 31.4411 204.287 31.2544C204.474 31.0678 204.661 30.8811 204.661 30.6012C204.661 30.3212 204.474 30.1345 204.287 30.0412C204.007 29.8546 203.727 29.7612 203.447 29.7612C203.167 29.7612 202.794 29.8546 202.514 30.0412C202.328 30.2279 202.141 30.4145 202.141 30.6945Z" fill="url(#paint22_linear)"/>
  <path d="M210.26 35.8276C210.54 36.0142 210.913 36.1075 211.193 36.1075C211.473 36.1075 211.846 36.0142 212.126 35.8276C212.313 35.6409 212.5 35.4543 212.5 35.1743C212.5 34.8943 212.313 34.7077 212.126 34.6143C211.846 34.4277 211.566 34.3344 211.286 34.3344C211.006 34.3344 210.633 34.4277 210.446 34.6143C210.166 34.7077 210.073 34.8943 210.073 35.1743C209.886 35.3609 210.073 35.6409 210.26 35.8276Z" fill="url(#paint23_linear)"/>
  <path d="M217.633 39.6538C217.633 39.9338 217.82 40.1204 218.006 40.3071C218.286 40.4937 218.566 40.587 218.846 40.587C219.126 40.587 219.5 40.4937 219.78 40.3071C219.966 40.1204 220.153 39.9338 220.153 39.6538C220.153 39.3738 219.966 39.1871 219.78 39.0938C219.313 38.7205 218.566 38.7205 218.006 39.0938C217.82 39.0938 217.633 39.3738 217.633 39.6538Z" fill="url(#paint24_linear)"/>
  <path d="M225.753 44.6933C226.032 44.8799 226.312 44.9733 226.686 44.9733C226.966 44.9733 227.339 44.8799 227.619 44.6933C227.806 44.5066 227.992 44.32 227.992 44.04C227.992 43.76 227.806 43.5734 227.619 43.4801C227.339 43.2934 227.059 43.2001 226.779 43.2001C226.499 43.2001 226.126 43.2934 225.939 43.4801C225.753 43.5734 225.566 43.76 225.566 44.04C225.286 44.32 225.473 44.5066 225.753 44.6933Z" fill="url(#paint25_linear)"/>
  <path d="M233.125 48.5201C233.125 48.8 233.311 48.9867 233.498 49.08C233.778 49.2667 234.058 49.36 234.338 49.36C234.618 49.36 234.991 49.2667 235.271 49.08C235.458 48.8934 235.645 48.7067 235.645 48.4267C235.645 48.1467 235.458 47.9601 235.271 47.8668C234.991 47.6801 234.711 47.5868 234.431 47.5868C234.151 47.5868 233.778 47.6801 233.498 47.8668C233.311 48.0534 233.125 48.2401 233.125 48.5201Z" fill="url(#paint26_linear)"/>
  <path d="M242.924 53.5591C243.204 53.3725 243.391 53.1858 243.391 52.9059C243.391 52.6259 243.204 52.4392 243.017 52.3459C242.737 52.1592 242.457 52.0659 242.177 52.0659C241.897 52.0659 241.524 52.1592 241.338 52.3459C241.058 52.4392 240.964 52.7192 240.964 52.9992C240.964 53.2792 241.151 53.4658 241.338 53.6525C241.711 53.9324 242.364 53.9324 242.924 53.5591Z" fill="url(#paint27_linear)"/>
  <path d="M248.617 57.479C248.617 57.7589 248.804 57.9456 248.99 58.1323C249.27 58.3189 249.55 58.4122 249.83 58.4122C250.11 58.4122 250.483 58.3189 250.763 58.1323C250.95 57.9456 251.137 57.7589 251.137 57.479C251.137 57.199 250.95 57.0123 250.763 56.919C250.483 56.7324 250.203 56.639 249.924 56.639C249.644 56.639 249.27 56.7324 249.084 56.919C248.71 57.0123 248.617 57.199 248.617 57.479Z" fill="url(#paint28_linear)"/>
  <path d="M256.643 62.6119C256.923 62.7985 257.203 62.8918 257.576 62.8918C257.949 62.8918 258.229 62.7985 258.509 62.6119C258.696 62.4252 258.883 62.2386 258.883 61.9586C258.883 61.6786 258.696 61.492 258.509 61.3986C258.229 61.212 257.949 61.1187 257.669 61.1187C257.389 61.1187 257.016 61.212 256.83 61.3986C256.736 61.3986 256.643 61.492 256.55 61.5853C256.456 61.6786 256.456 61.7719 256.456 61.9586C256.27 62.1452 256.456 62.4252 256.643 62.6119Z" fill="url(#paint29_linear)"/>
  <path d="M266.256 66.9981C266.536 66.8115 266.722 66.6248 266.722 66.3448C266.722 66.0648 266.536 65.8782 266.349 65.7849C266.069 65.5982 265.789 65.5049 265.509 65.5049C265.229 65.5049 264.856 65.5982 264.669 65.7849C264.389 65.8782 264.203 66.0648 264.203 66.4381C264.203 66.7181 264.389 66.9048 264.669 67.0914C264.949 67.3714 265.696 67.2781 266.256 66.9981Z" fill="url(#paint30_linear)"/>
  <path d="M271.762 70.8244C271.762 71.1044 271.948 71.2911 272.135 71.4777C272.415 71.6644 272.695 71.7577 272.975 71.7577C273.255 71.7577 273.628 71.6644 273.908 71.4777C274.095 71.2911 274.282 71.1044 274.282 70.8244C274.282 70.5445 274.095 70.3578 273.908 70.2645C273.628 70.0778 273.348 69.9845 273.068 69.9845C272.788 69.9845 272.415 70.0778 272.228 70.2645C271.948 70.3578 271.762 70.6378 271.762 70.8244Z" fill="url(#paint31_linear)"/>
  <path d="M279.601 75.6777C279.695 75.771 279.788 75.8644 279.975 75.9577C280.255 76.1443 280.535 76.2377 280.908 76.2377C281.188 76.2377 281.561 76.1443 281.841 75.9577C282.028 75.771 282.214 75.5844 282.214 75.3044C282.214 75.0244 282.028 74.8378 281.841 74.7445C281.561 74.5578 281.281 74.4645 281.001 74.4645C280.721 74.4645 280.348 74.5578 280.161 74.7445C280.068 74.8378 279.881 74.8378 279.788 74.9311C279.695 75.0244 279.601 75.1178 279.601 75.3044C279.415 75.4911 279.508 75.5844 279.601 75.6777Z" fill="url(#paint32_linear)"/>
  <path d="M289.401 80.4373C289.681 80.2507 289.867 80.064 289.867 79.784C289.867 79.504 289.681 79.3174 289.494 79.2241C289.214 79.0374 288.934 78.9441 288.654 78.9441C288.374 78.9441 288.001 79.0374 287.814 79.2241C287.721 79.2241 287.627 79.3174 287.534 79.4107C287.441 79.504 287.441 79.5974 287.441 79.784C287.441 80.064 287.627 80.2507 287.814 80.4373C288.094 80.8106 288.841 80.8106 289.401 80.4373Z" fill="url(#paint33_linear)"/>
  <path d="M294.907 84.2635C294.907 84.5434 295.093 84.7301 295.28 84.8234C295.56 85.0101 295.84 85.1034 296.213 85.1034C296.493 85.1034 296.867 85.0101 297.147 84.8234C297.333 84.6368 297.52 84.4501 297.52 84.1701C297.52 83.8902 297.333 83.7035 297.147 83.6102C296.867 83.4235 296.587 83.3302 296.307 83.3302C296.027 83.3302 295.653 83.4235 295.467 83.6102C295 83.7968 294.907 83.9835 294.907 84.2635Z" fill="url(#paint34_linear)"/>
  <path d="M304.799 87.9965C304.519 87.8099 304.239 87.7166 303.866 87.7166C303.586 87.7166 303.213 87.8099 302.933 87.9965C302.746 88.1832 302.559 88.3698 302.559 88.6498C302.559 88.9298 302.746 89.1164 302.933 89.2098C303.213 89.3964 303.493 89.4897 303.773 89.4897C304.053 89.4897 304.426 89.3964 304.613 89.2098C304.706 89.1164 304.892 89.1164 304.986 89.0231C305.079 88.9298 305.172 88.8365 305.172 88.6498C305.172 88.4632 305.079 88.3698 304.986 88.2765C304.986 88.1832 304.892 88.0899 304.799 87.9965Z" fill="url(#paint35_linear)"/>
  <path d="M187.209 30.0412C186.929 30.2279 186.742 30.4145 186.742 30.6945C186.742 30.9745 186.929 31.1611 187.115 31.2544C187.395 31.4411 187.675 31.5344 187.955 31.5344C188.235 31.5344 188.609 31.4411 188.889 31.2544C189.075 31.0678 189.262 30.8811 189.262 30.6012C189.262 30.3212 189.075 30.1345 188.889 30.0412C188.515 29.6679 187.769 29.6679 187.209 30.0412Z" fill="url(#paint36_linear)"/>
  <path d="M194.862 35.8275C195.142 36.0142 195.422 36.1075 195.795 36.1075C196.168 36.1075 196.448 36.0142 196.728 35.8275C196.915 35.6409 197.101 35.4542 197.101 35.1742C197.101 34.8942 196.915 34.7076 196.635 34.6143C196.448 34.5209 196.075 34.4276 195.795 34.4276C195.515 34.4276 195.142 34.4276 194.955 34.6143C194.862 34.6143 194.768 34.7076 194.675 34.8009C194.582 34.8942 194.582 34.9876 194.582 35.1742C194.488 35.4542 194.675 35.6409 194.862 35.8275Z" fill="url(#paint37_linear)"/>
  <path d="M287.534 89.3032C287.814 89.4898 288.187 89.5831 288.467 89.5831C288.747 89.5831 289.121 89.4898 289.401 89.3032C289.587 89.1165 289.774 88.9298 289.774 88.6499C289.774 88.3699 289.587 88.1832 289.401 88.0899C289.121 87.9033 288.841 87.8099 288.561 87.8099C288.281 87.8099 287.907 87.9033 287.627 88.0899C287.441 88.1832 287.254 88.3699 287.254 88.6499C287.254 88.9298 287.441 89.1165 287.534 89.3032Z" fill="url(#paint38_linear)"/>
  <path d="M297.147 92.4761C296.867 92.2895 296.587 92.1962 296.213 92.1962C295.84 92.1962 295.56 92.2895 295.28 92.4761C295.093 92.6628 294.907 92.8494 294.907 93.1294C294.907 93.4094 295.093 93.5961 295.28 93.6894C295.56 93.876 295.84 93.9694 296.12 93.9694C296.4 93.9694 296.773 93.876 296.96 93.6894C297.147 93.5961 297.333 93.4094 297.333 93.1294C297.613 92.8494 297.427 92.6628 297.147 92.4761Z" fill="url(#paint39_linear)"/>
  <path d="M179.463 35.8276C179.743 36.0142 180.023 36.1075 180.396 36.1075C180.676 36.1075 181.049 36.0142 181.329 35.8276C181.516 35.6409 181.703 35.4543 181.703 35.1743C181.703 34.8943 181.516 34.7077 181.329 34.6143C180.863 34.241 180.116 34.241 179.556 34.6143C179.463 34.6143 179.369 34.7077 179.276 34.801C179.183 34.8943 179.183 34.9876 179.183 35.1743C179.089 35.4543 179.276 35.6409 179.463 35.8276Z" fill="url(#paint40_linear)"/>
  <path d="M186.836 39.6538C186.836 39.9338 187.022 40.1204 187.209 40.3071C187.489 40.4937 187.769 40.587 188.049 40.587C188.329 40.587 188.702 40.4937 188.982 40.3071C189.169 40.1204 189.355 39.9338 189.355 39.6538C189.355 39.3738 189.169 39.1871 188.982 39.0938C188.702 38.9072 188.422 38.8138 188.142 38.8138C187.862 38.8138 187.489 38.9072 187.302 39.0938C186.929 39.0938 186.836 39.3738 186.836 39.6538Z" fill="url(#paint41_linear)"/>
  <path d="M279.508 93.1294C279.508 93.4094 279.695 93.5961 279.881 93.6894C280.161 93.876 280.441 93.9694 280.721 93.9694C281.001 93.9694 281.374 93.876 281.654 93.6894C281.841 93.5027 282.028 93.3161 282.028 93.0361C282.028 92.7561 281.841 92.5695 281.654 92.4761C281.374 92.2895 281.094 92.1962 280.814 92.1962C280.535 92.1962 280.161 92.2895 279.881 92.4761C279.695 92.6628 279.508 92.8494 279.508 93.1294Z" fill="url(#paint42_linear)"/>
  <path d="M289.494 97.0491C289.214 96.8625 288.934 96.7692 288.561 96.7692C288.281 96.7692 287.907 96.8625 287.627 97.0491C287.441 97.2358 287.254 97.4224 287.254 97.7024C287.254 97.9824 287.441 98.1691 287.627 98.2624C287.907 98.449 288.187 98.5424 288.467 98.5424C288.747 98.5424 289.121 98.449 289.401 98.2624C289.96 97.8891 289.96 97.3291 289.494 97.0491Z" fill="url(#paint43_linear)"/>
  <path d="M171.437 39.6538C171.437 39.9338 171.623 40.1204 171.81 40.3071C172.09 40.4937 172.37 40.587 172.65 40.587C172.93 40.587 173.303 40.4937 173.583 40.3071C173.77 40.1204 173.956 39.9338 173.956 39.6538C173.956 39.3738 173.77 39.1871 173.583 39.0938C173.117 38.7205 172.37 38.7205 171.81 39.0938C171.623 39.0938 171.437 39.3738 171.437 39.6538Z" fill="url(#paint44_linear)"/>
  <path d="M179.462 44.6933C179.742 44.8799 180.022 44.9733 180.395 44.9733C180.675 44.9733 181.049 44.8799 181.329 44.6933C181.515 44.5066 181.702 44.32 181.702 44.04C181.702 43.76 181.515 43.5734 181.329 43.4801C181.049 43.2934 180.769 43.2001 180.489 43.2001C180.209 43.2001 179.836 43.2934 179.649 43.4801C179.556 43.4801 179.462 43.5734 179.369 43.6667C179.276 43.76 179.276 43.8534 179.276 44.04C179.089 44.32 179.276 44.5066 179.462 44.6933Z" fill="url(#paint45_linear)"/>
  <path d="M271.855 97.6091C271.855 97.8891 272.042 98.1691 272.322 98.2624C272.602 98.449 272.882 98.5424 273.255 98.5424C273.535 98.5424 273.908 98.449 274.188 98.2624C274.375 98.0757 274.562 97.8891 274.562 97.6091C274.562 97.3291 274.375 97.1425 274.188 97.0491C273.908 96.8625 273.628 96.7692 273.348 96.7692C273.068 96.7692 272.788 96.8625 272.509 97.0491C272.135 97.1425 271.855 97.3291 271.855 97.6091Z" fill="url(#paint46_linear)"/>
  <path d="M281.841 101.529C281.561 101.342 281.281 101.249 280.908 101.249C280.628 101.249 280.255 101.342 279.975 101.529C279.788 101.715 279.601 101.902 279.601 102.182C279.601 102.462 279.788 102.649 279.975 102.742C280.255 102.929 280.535 103.022 280.815 103.022C281.095 103.022 281.468 102.929 281.655 102.742C281.934 102.649 282.028 102.369 282.028 102.089C282.121 101.809 282.028 101.622 281.841 101.529Z" fill="url(#paint47_linear)"/>
  <path d="M164.157 44.6933C164.437 44.8799 164.717 44.9733 165.09 44.9733C165.37 44.9733 165.744 44.8799 166.024 44.6933C166.21 44.5066 166.397 44.32 166.397 44.04C166.397 43.76 166.21 43.5734 166.024 43.4801C165.557 43.1067 164.81 43.1067 164.25 43.4801C164.157 43.4801 164.064 43.5734 163.97 43.6667C163.877 43.76 163.877 43.8534 163.877 44.04C163.69 44.32 163.877 44.5066 164.157 44.6933Z" fill="url(#paint48_linear)"/>
  <path d="M171.623 48.8934C171.717 48.9867 171.81 49.08 171.997 49.08C172.277 49.2667 172.557 49.36 172.837 49.36C173.117 49.36 173.49 49.2667 173.77 49.08C173.956 48.8934 174.143 48.7067 174.143 48.4267C174.143 48.1467 173.956 47.9601 173.77 47.8668C173.49 47.6801 173.21 47.5868 172.93 47.5868C172.65 47.5868 172.277 47.6801 171.997 47.8668C171.903 47.9601 171.717 48.0534 171.623 48.1467C171.53 48.2401 171.437 48.3334 171.437 48.5201C171.437 48.7067 171.53 48.8 171.623 48.8934Z" fill="url(#paint49_linear)"/>
  <path d="M264.203 102.089C264.203 102.369 264.389 102.555 264.669 102.742C264.949 102.929 265.229 103.022 265.509 103.022C265.789 103.022 266.162 102.929 266.442 102.742C266.629 102.555 266.816 102.369 266.816 102.089C266.816 101.809 266.629 101.622 266.442 101.529C266.162 101.342 265.882 101.249 265.602 101.249C265.322 101.249 264.949 101.342 264.762 101.529C264.389 101.622 264.203 101.809 264.203 102.089Z" fill="url(#paint50_linear)"/>
  <path d="M274.095 105.915C273.815 105.728 273.535 105.635 273.255 105.635C272.975 105.635 272.602 105.728 272.322 105.915C272.135 106.102 271.949 106.288 271.949 106.568C271.949 106.848 272.135 107.035 272.322 107.128C272.602 107.315 272.882 107.408 273.162 107.408C273.442 107.408 273.815 107.315 274.002 107.128C274.282 107.035 274.375 106.755 274.375 106.475C274.562 106.195 274.375 106.008 274.095 105.915Z" fill="url(#paint51_linear)"/>
  <path d="M156.504 47.8663C156.224 48.053 156.038 48.2396 156.038 48.5196C156.038 48.7996 156.224 48.9862 156.411 49.0796C156.691 49.2662 156.971 49.3596 157.251 49.3596C157.531 49.3596 157.904 49.2662 158.184 49.0796C158.371 48.8929 158.558 48.7063 158.558 48.4263C158.558 48.1463 158.371 47.9597 158.184 47.8663C157.718 47.493 157.064 47.5864 156.504 47.8663Z" fill="url(#paint52_linear)"/>
  <path d="M163.784 52.9994C163.784 53.2793 163.97 53.466 164.25 53.6526C164.53 53.8393 164.81 53.9326 165.09 53.9326C165.37 53.9326 165.743 53.8393 166.023 53.6526C166.21 53.466 166.397 53.2793 166.397 52.9994C166.397 52.7194 166.21 52.5327 166.023 52.4394C165.743 52.2527 165.463 52.1594 165.183 52.1594C164.903 52.1594 164.53 52.2527 164.344 52.4394C163.97 52.5327 163.784 52.7194 163.784 52.9994Z" fill="url(#paint53_linear)"/>
  <path d="M256.923 107.222C257.203 107.408 257.483 107.502 257.856 107.502C258.23 107.502 258.51 107.408 258.79 107.222C258.976 107.035 259.163 106.848 259.163 106.568C259.163 106.288 258.976 106.102 258.79 106.008C258.51 105.822 258.23 105.729 257.95 105.729C257.67 105.729 257.296 105.822 257.11 106.008C257.016 106.008 256.923 106.102 256.83 106.195C256.736 106.288 256.736 106.382 256.736 106.568C256.55 106.755 256.737 107.035 256.923 107.222Z" fill="url(#paint54_linear)"/>
  <path d="M266.349 110.395C266.069 110.208 265.789 110.115 265.416 110.115C265.136 110.115 264.763 110.208 264.483 110.395C264.296 110.581 264.109 110.768 264.109 111.048C264.109 111.328 264.296 111.515 264.576 111.608C264.763 111.701 265.136 111.795 265.416 111.795C265.696 111.795 266.069 111.795 266.256 111.608C266.349 111.515 266.536 111.515 266.629 111.421C266.722 111.328 266.816 111.235 266.816 111.048C266.816 110.861 266.722 110.768 266.629 110.675C266.536 110.581 266.442 110.488 266.349 110.395Z" fill="url(#paint55_linear)"/>
  <path d="M148.385 52.9994C148.385 53.2793 148.571 53.466 148.758 53.6526C149.038 53.8393 149.318 53.9326 149.598 53.9326C149.878 53.9326 150.251 53.8393 150.531 53.6526C150.718 53.466 150.904 53.2793 150.904 52.9994C150.904 52.7194 150.718 52.5327 150.531 52.4394C150.065 52.0661 149.318 52.0661 148.758 52.4394C148.571 52.5327 148.385 52.7194 148.385 52.9994Z" fill="url(#paint56_linear)"/>
  <path d="M156.597 58.1323C156.877 58.319 157.157 58.4123 157.437 58.4123C157.717 58.4123 158.091 58.319 158.371 58.1323C158.557 57.9457 158.744 57.759 158.744 57.479C158.744 57.1991 158.557 57.0124 158.277 56.9191C158.091 56.8257 157.717 56.7324 157.437 56.7324C157.157 56.7324 156.784 56.7324 156.597 56.9191C156.317 57.0124 156.131 57.2924 156.131 57.5724C156.131 57.759 156.317 57.9457 156.597 58.1323Z" fill="url(#paint57_linear)"/>
  <path d="M248.897 111.048C248.897 111.328 249.084 111.515 249.27 111.608C249.55 111.795 249.83 111.888 250.11 111.888C250.39 111.888 250.764 111.795 251.044 111.608C251.23 111.421 251.417 111.235 251.417 110.955C251.417 110.675 251.23 110.488 251.044 110.395C250.764 110.208 250.484 110.115 250.204 110.115C249.924 110.115 249.55 110.208 249.27 110.395C249.084 110.581 248.897 110.768 248.897 111.048Z" fill="url(#paint58_linear)"/>
  <path d="M258.696 114.875C258.416 114.688 258.136 114.595 257.856 114.595C257.577 114.595 257.203 114.688 256.923 114.875C256.737 115.061 256.55 115.248 256.55 115.528C256.55 115.808 256.737 115.995 256.923 116.088C257.203 116.275 257.483 116.368 257.763 116.368C258.043 116.368 258.416 116.275 258.603 116.088C258.883 115.995 258.976 115.715 258.976 115.435C259.163 115.248 258.976 114.968 258.696 114.875Z" fill="url(#paint59_linear)"/>
  <path d="M140.732 57.479C140.732 57.7589 140.919 57.9456 141.199 58.1323C141.479 58.3189 141.759 58.4122 142.039 58.4122C142.319 58.4122 142.692 58.3189 142.972 58.1323C143.159 57.9456 143.345 57.7589 143.345 57.479C143.345 57.199 143.159 57.0123 142.972 56.919C142.505 56.5457 141.759 56.5457 141.199 56.919C140.919 57.0123 140.732 57.199 140.732 57.479Z" fill="url(#paint60_linear)"/>
  <path d="M148.852 62.6119C149.132 62.7985 149.412 62.8918 149.785 62.8918C150.065 62.8918 150.438 62.7985 150.718 62.6119C150.905 62.4252 151.092 62.2386 151.092 61.9586C151.092 61.6786 150.905 61.492 150.718 61.3986C150.438 61.212 150.158 61.1187 149.878 61.1187C149.598 61.1187 149.225 61.212 149.039 61.3986C148.945 61.3986 148.852 61.492 148.759 61.5853C148.665 61.6786 148.665 61.7719 148.665 61.9586C148.479 62.1452 148.665 62.4252 148.852 62.6119Z" fill="url(#paint61_linear)"/>
  <path d="M156.131 66.3448C156.131 66.6248 156.317 66.8115 156.504 66.9981C156.784 67.1848 157.064 67.2781 157.344 67.2781C157.624 67.2781 157.997 67.1848 158.277 66.9981C158.464 66.8115 158.651 66.6248 158.651 66.3448C158.651 66.0648 158.464 65.8782 158.277 65.7849C157.997 65.5982 157.717 65.5049 157.437 65.5049C157.157 65.5049 156.784 65.5982 156.597 65.7849C156.317 65.8782 156.131 66.0648 156.131 66.3448Z" fill="url(#paint62_linear)"/>
  <path d="M241.151 115.435C241.151 115.715 241.338 115.901 241.524 116.088C241.804 116.275 242.084 116.368 242.364 116.368C242.644 116.368 243.018 116.275 243.298 116.088C243.484 115.901 243.671 115.715 243.671 115.435C243.671 115.155 243.484 114.968 243.298 114.875C243.018 114.688 242.738 114.595 242.458 114.595C242.178 114.595 241.804 114.688 241.618 114.875C241.338 114.968 241.151 115.248 241.151 115.435Z" fill="url(#paint63_linear)"/>
  <path d="M251.044 119.261C250.764 119.074 250.484 118.981 250.11 118.981C249.737 118.981 249.457 119.074 249.177 119.261C248.99 119.447 248.804 119.634 248.804 119.914C248.804 120.194 248.99 120.381 249.177 120.474C249.457 120.661 249.737 120.754 250.017 120.754C250.297 120.754 250.67 120.661 250.857 120.474C251.044 120.381 251.23 120.194 251.23 119.914C251.51 119.634 251.324 119.447 251.044 119.261Z" fill="url(#paint64_linear)"/>
  <path d="M133.359 62.6119C133.639 62.7985 133.919 62.8918 134.293 62.8918C134.572 62.8918 134.946 62.7985 135.226 62.6119C135.412 62.4252 135.599 62.2386 135.599 61.9586C135.599 61.6786 135.412 61.492 135.226 61.3986C134.759 61.0253 134.013 61.0253 133.453 61.3986C133.359 61.3986 133.266 61.492 133.173 61.5853C133.079 61.6786 133.079 61.7719 133.079 61.9586C132.986 62.1452 133.173 62.4252 133.359 62.6119Z" fill="url(#paint65_linear)"/>
  <path d="M140.732 66.3448C140.732 66.6248 140.919 66.8115 141.105 66.9981C141.385 67.1848 141.665 67.2781 141.945 67.2781C142.225 67.2781 142.599 67.1848 142.879 66.9981C143.065 66.8115 143.252 66.6248 143.252 66.3448C143.252 66.0648 143.065 65.8782 142.879 65.7849C142.599 65.5982 142.319 65.5049 142.039 65.5049C141.759 65.5049 141.385 65.5982 141.199 65.7849C140.919 65.8782 140.732 66.0648 140.732 66.3448Z" fill="url(#paint66_linear)"/>
  <path d="M233.872 120.568C234.151 120.754 234.431 120.848 234.805 120.848C235.085 120.848 235.458 120.754 235.738 120.568C235.925 120.381 236.111 120.194 236.111 119.914C236.111 119.634 235.925 119.448 235.738 119.354C235.458 119.168 235.178 119.074 234.898 119.074C234.618 119.074 234.245 119.168 234.058 119.354C233.872 119.448 233.685 119.634 233.685 119.914C233.498 120.194 233.685 120.381 233.872 120.568Z" fill="url(#paint67_linear)"/>
  <path d="M243.391 123.741C243.111 123.554 242.831 123.461 242.551 123.461C242.271 123.461 241.898 123.554 241.618 123.741C241.431 123.927 241.245 124.114 241.245 124.394C241.245 124.674 241.431 124.86 241.618 124.954C241.898 125.14 242.178 125.234 242.458 125.234C242.738 125.234 243.111 125.14 243.298 124.954C243.578 124.86 243.671 124.58 243.671 124.3C243.764 124.114 243.578 123.834 243.391 123.741Z" fill="url(#paint68_linear)"/>
  <path d="M125.707 65.7849C125.241 66.0648 125.241 66.7181 125.707 66.9981C125.987 67.1848 126.267 67.2781 126.64 67.2781C126.92 67.2781 127.294 67.1848 127.574 66.9981C127.76 66.8114 127.947 66.6248 127.947 66.3448C127.947 66.0648 127.76 65.8782 127.574 65.7849C127.014 65.4116 126.267 65.4116 125.707 65.7849Z" fill="url(#paint69_linear)"/>
  <path d="M133.453 71.4777C133.733 71.6644 134.013 71.7577 134.386 71.7577C134.666 71.7577 135.04 71.6644 135.32 71.4777C135.506 71.2911 135.693 71.1044 135.693 70.8244C135.693 70.5445 135.506 70.3578 135.32 70.2645C135.04 70.0778 134.76 69.9845 134.48 69.9845C134.2 69.9845 133.826 70.0778 133.64 70.2645C133.453 70.3578 133.266 70.5445 133.266 70.8244C133.08 71.1044 133.266 71.2911 133.453 71.4777Z" fill="url(#paint70_linear)"/>
  <path d="M226.218 125.047C226.498 125.234 226.778 125.327 227.152 125.327C227.525 125.327 227.805 125.234 228.085 125.047C228.271 124.861 228.458 124.674 228.458 124.394C228.458 124.114 228.271 123.927 228.085 123.834C227.805 123.647 227.525 123.554 227.245 123.554C226.965 123.554 226.592 123.647 226.405 123.834C226.312 123.834 226.218 123.927 226.125 124.021C226.032 124.114 226.032 124.207 226.032 124.394C225.845 124.674 225.938 124.861 226.218 125.047Z" fill="url(#paint71_linear)"/>
  <path d="M235.645 128.22C235.365 128.034 235.085 127.94 234.805 127.94C234.525 127.94 234.152 128.034 233.872 128.22C233.685 128.407 233.498 128.593 233.498 128.873C233.498 129.153 233.685 129.34 233.872 129.433C234.152 129.62 234.432 129.713 234.712 129.713C234.992 129.713 235.365 129.62 235.552 129.433C235.832 129.34 235.925 129.06 235.925 128.78C236.112 128.593 235.925 128.407 235.645 128.22Z" fill="url(#paint72_linear)"/>
  <path d="M117.961 71.4777C118.24 71.6644 118.614 71.7577 118.894 71.7577C119.174 71.7577 119.547 71.6644 119.827 71.4777C120.014 71.2911 120.2 71.1044 120.2 70.8244C120.2 70.5445 120.014 70.3578 119.827 70.2645C119.36 69.8912 118.614 69.8912 118.054 70.2645C117.867 70.3578 117.681 70.6378 117.681 70.8244C117.681 71.0111 117.774 71.2911 117.961 71.4777Z" fill="url(#paint73_linear)"/>
  <path d="M125.427 75.3042C125.427 75.5842 125.613 75.7709 125.8 75.8642C126.08 76.0508 126.36 76.1442 126.64 76.1442C126.92 76.1442 127.293 76.0508 127.573 75.8642C127.76 75.6775 127.946 75.4909 127.946 75.2109C127.946 74.9309 127.76 74.7443 127.573 74.651C127.293 74.4643 127.013 74.371 126.733 74.371C126.453 74.371 126.08 74.4643 125.8 74.651C125.613 74.8376 125.427 75.0243 125.427 75.3042Z" fill="url(#paint74_linear)"/>
  <path d="M218.1 128.873C218.1 129.153 218.286 129.34 218.473 129.527C218.753 129.713 219.033 129.807 219.313 129.807C219.593 129.807 219.966 129.713 220.246 129.527C220.433 129.34 220.619 129.153 220.619 128.873C220.619 128.593 220.433 128.407 220.246 128.313C219.966 128.127 219.686 128.033 219.406 128.033C219.126 128.033 218.753 128.127 218.566 128.313C218.286 128.407 218.1 128.593 218.1 128.873Z" fill="url(#paint75_linear)"/>
  <path d="M227.992 132.606C227.712 132.42 227.432 132.326 227.059 132.326C226.685 132.326 226.405 132.42 226.126 132.606C225.939 132.793 225.752 132.98 225.752 133.26C225.752 133.54 225.939 133.726 226.219 133.82C226.405 133.913 226.779 134.006 227.059 134.006C227.339 134.006 227.712 134.006 227.992 133.82C228.179 133.726 228.365 133.54 228.365 133.26C228.459 132.98 228.272 132.793 227.992 132.606Z" fill="url(#paint76_linear)"/>
  <path d="M110.308 74.6509C110.121 74.8376 109.934 75.1176 109.934 75.3042C109.934 75.5842 110.028 75.7709 110.308 75.8642C110.588 76.0508 110.868 76.1442 111.241 76.1442C111.521 76.1442 111.894 76.0508 112.174 75.8642C112.361 75.6775 112.547 75.4909 112.547 75.2109C112.547 74.9309 112.361 74.7443 112.174 74.6509C111.614 74.2776 110.868 74.2776 110.308 74.6509Z" fill="url(#paint77_linear)"/>
  <path d="M118.147 80.4371C118.427 80.6238 118.707 80.7171 119.081 80.7171C119.454 80.7171 119.734 80.6238 120.014 80.4371C120.201 80.2505 120.387 80.0638 120.387 79.7838C120.387 79.5039 120.201 79.3172 119.921 79.2239C119.734 79.1306 119.361 79.0372 119.081 79.0372C118.801 79.0372 118.427 79.0372 118.241 79.2239C118.147 79.2239 118.054 79.3172 117.961 79.4105C117.867 79.5039 117.867 79.5972 117.867 79.7838C117.681 80.0638 117.867 80.2505 118.147 80.4371Z" fill="url(#paint78_linear)"/>
  <path d="M210.82 133.913C211.1 134.1 211.38 134.193 211.753 134.193C212.127 134.193 212.407 134.1 212.687 133.913C212.873 133.726 213.06 133.54 213.06 133.26C213.06 132.98 212.873 132.793 212.687 132.7C212.407 132.513 212.127 132.42 211.847 132.42C211.567 132.42 211.193 132.513 211.007 132.7C210.82 132.793 210.633 132.98 210.633 133.26C210.447 133.54 210.633 133.82 210.82 133.913Z" fill="url(#paint79_linear)"/>
  <path d="M220.339 137.179C220.059 136.993 219.779 136.899 219.406 136.899C219.033 136.899 218.753 136.993 218.473 137.179C218.286 137.366 218.1 137.553 218.1 137.833C218.1 138.113 218.286 138.299 218.473 138.393C218.753 138.579 219.033 138.673 219.313 138.673C219.593 138.673 219.966 138.579 220.153 138.393C220.339 138.299 220.526 138.113 220.526 137.833C220.713 137.553 220.526 137.273 220.339 137.179Z" fill="url(#paint80_linear)"/>
  <path d="M102.282 79.784C102.282 80.064 102.468 80.344 102.748 80.4373C103.028 80.624 103.308 80.7173 103.682 80.7173C103.962 80.7173 104.335 80.624 104.615 80.4373C104.802 80.2507 104.988 80.064 104.988 79.784C104.988 79.504 104.802 79.3174 104.615 79.2241C104.148 78.8508 103.402 78.8508 102.935 79.2241C102.562 79.3174 102.282 79.4107 102.282 79.784Z" fill="url(#paint81_linear)"/>
  <path d="M110.028 84.2636C110.028 84.5436 110.214 84.7303 110.401 84.9169C110.681 85.1036 110.961 85.1969 111.241 85.1969C111.521 85.1969 111.894 85.1036 112.174 84.9169C112.361 84.7303 112.548 84.5436 112.548 84.2636C112.548 83.9837 112.361 83.797 112.174 83.7037C111.894 83.517 111.614 83.4237 111.334 83.4237C111.054 83.4237 110.681 83.517 110.494 83.7037C110.214 83.797 110.028 83.9837 110.028 84.2636Z" fill="url(#paint82_linear)"/>
  <path d="M117.774 88.6499C117.774 88.9298 117.961 89.2098 118.241 89.3032C118.521 89.4898 118.801 89.5831 119.174 89.5831C119.454 89.5831 119.827 89.4898 120.107 89.3032C120.294 89.1165 120.48 88.9298 120.48 88.6499C120.48 88.3699 120.294 88.1832 120.107 88.0899C119.827 87.9033 119.547 87.8099 119.267 87.8099C118.987 87.8099 118.707 87.9033 118.427 88.0899C117.961 88.1832 117.774 88.3699 117.774 88.6499Z" fill="url(#paint83_linear)"/>
  <path d="M125.893 92.4762C125.613 92.6629 125.427 92.8495 125.427 93.1295C125.427 93.4095 125.613 93.5961 125.8 93.6894C126.08 93.8761 126.36 93.9694 126.64 93.9694C126.92 93.9694 127.293 93.8761 127.573 93.6894C127.76 93.5028 127.946 93.3161 127.946 93.0362C127.946 92.7562 127.76 92.5695 127.573 92.4762C127.2 92.1029 126.453 92.1962 125.893 92.4762Z" fill="url(#paint84_linear)"/>
  <path d="M133.639 97.0491C133.173 97.3291 133.173 97.9824 133.639 98.2624C133.919 98.449 134.199 98.5424 134.573 98.5424C134.853 98.5424 135.226 98.449 135.506 98.2624C135.693 98.0757 135.879 97.8891 135.879 97.6091C135.879 97.3291 135.693 97.1425 135.506 97.0491C135.226 96.8625 134.946 96.7692 134.666 96.7692C134.199 96.7692 133.826 96.8625 133.639 97.0491Z" fill="url(#paint85_linear)"/>
  <path d="M141.012 102.089C141.012 102.369 141.199 102.555 141.386 102.742C141.665 102.929 141.945 103.022 142.225 103.022C142.505 103.022 142.879 102.929 143.159 102.742C143.345 102.555 143.532 102.369 143.532 102.089C143.532 101.809 143.345 101.622 143.159 101.529C142.879 101.342 142.599 101.249 142.319 101.249C142.039 101.249 141.665 101.342 141.479 101.529C141.106 101.622 141.012 101.809 141.012 102.089Z" fill="url(#paint86_linear)"/>
  <path d="M150.812 107.222C151.092 107.035 151.278 106.848 151.278 106.568C151.278 106.288 151.092 106.102 150.905 106.008C150.625 105.822 150.345 105.729 150.065 105.729C149.785 105.729 149.412 105.822 149.225 106.008C149.132 106.008 149.038 106.102 148.945 106.195C148.852 106.288 148.852 106.382 148.852 106.568C148.852 106.848 149.038 107.035 149.225 107.222C149.598 107.595 150.252 107.502 150.812 107.222Z" fill="url(#paint87_linear)"/>
  <path d="M156.411 110.955C156.411 111.235 156.598 111.421 156.878 111.608C157.158 111.795 157.438 111.888 157.718 111.888C157.998 111.888 158.371 111.795 158.651 111.608C158.837 111.421 159.024 111.235 159.024 110.955C159.024 110.675 158.837 110.488 158.651 110.395C158.371 110.208 158.091 110.115 157.811 110.115C157.531 110.115 157.158 110.208 156.971 110.395C156.598 110.488 156.411 110.675 156.411 110.955Z" fill="url(#paint88_linear)"/>
  <path d="M164.157 115.435C164.157 115.715 164.344 115.901 164.53 116.088C164.81 116.275 165.09 116.368 165.37 116.368C165.65 116.368 166.024 116.275 166.304 116.088C166.49 115.901 166.677 115.715 166.677 115.435C166.677 115.155 166.49 114.968 166.304 114.875C166.024 114.688 165.744 114.595 165.464 114.595C165.184 114.595 164.81 114.688 164.624 114.875C164.344 114.968 164.157 115.248 164.157 115.435Z" fill="url(#paint89_linear)"/>
  <path d="M174.049 120.474C174.329 120.287 174.516 120.101 174.516 119.821C174.516 119.541 174.329 119.354 174.143 119.261C173.863 119.074 173.583 118.981 173.303 118.981C173.023 118.981 172.649 119.074 172.369 119.261C172.183 119.447 171.996 119.634 171.996 119.914C171.996 120.194 172.183 120.381 172.369 120.474C172.836 120.847 173.489 120.847 174.049 120.474Z" fill="url(#paint90_linear)"/>
  <path d="M180.022 125.047C180.302 125.234 180.582 125.327 180.955 125.327C181.235 125.327 181.608 125.234 181.888 125.047C182.075 124.861 182.262 124.674 182.262 124.394C182.262 124.114 182.075 123.927 181.888 123.834C181.608 123.647 181.328 123.554 181.049 123.554C180.769 123.554 180.395 123.647 180.209 123.834C180.115 123.834 180.022 123.927 179.929 124.021C179.835 124.114 179.835 124.207 179.835 124.394C179.649 124.674 179.742 124.861 180.022 125.047Z" fill="url(#paint91_linear)"/>
  <path d="M187.302 128.873C187.302 129.153 187.489 129.34 187.675 129.527C187.955 129.713 188.235 129.807 188.515 129.807C188.795 129.807 189.169 129.713 189.449 129.527C189.635 129.34 189.822 129.153 189.822 128.873C189.822 128.593 189.635 128.407 189.449 128.313C189.169 128.127 188.889 128.033 188.609 128.033C188.329 128.033 187.955 128.127 187.769 128.313C187.489 128.407 187.302 128.593 187.302 128.873Z" fill="url(#paint92_linear)"/>
  <path d="M197.288 133.913C197.568 133.726 197.754 133.54 197.754 133.26C197.754 132.98 197.568 132.793 197.381 132.7C197.101 132.513 196.821 132.42 196.541 132.42C196.261 132.42 195.888 132.513 195.701 132.7C195.514 132.793 195.328 132.98 195.328 133.26C195.328 133.54 195.514 133.726 195.701 133.913C195.981 134.286 196.728 134.286 197.288 133.913Z" fill="url(#paint93_linear)"/>
  <path d="M202.794 137.739C202.794 138.019 202.98 138.206 203.167 138.299C203.447 138.486 203.727 138.579 204.007 138.579C204.287 138.579 204.66 138.486 204.94 138.299C205.127 138.113 205.314 137.926 205.314 137.646C205.314 137.366 205.127 137.179 204.94 137.086C204.66 136.899 204.38 136.806 204.1 136.806C203.82 136.806 203.447 136.899 203.167 137.086C202.98 137.273 202.794 137.553 202.794 137.739Z" fill="url(#paint94_linear)"/>
  <path d="M212.593 141.659C212.313 141.472 212.033 141.379 211.753 141.379C211.473 141.379 211.1 141.472 210.82 141.659C210.633 141.846 210.447 142.032 210.447 142.312C210.447 142.592 210.633 142.779 210.82 142.872C211.1 143.059 211.38 143.152 211.66 143.152C211.94 143.152 212.313 143.059 212.5 142.872C212.78 142.779 212.873 142.499 212.873 142.219C213.06 141.939 212.873 141.752 212.593 141.659Z" fill="url(#paint95_linear)"/>
  <path d="M96.8689 83.5169C96.309 83.1436 95.6557 83.1436 95.0957 83.5169C94.9091 83.7036 94.7224 83.8902 94.7224 84.1702C94.7224 84.4502 94.9091 84.6368 95.0957 84.7302C95.3757 84.9168 95.6557 85.0101 95.9356 85.0101C96.2156 85.0101 96.5889 84.9168 96.7756 84.7302C97.0556 84.6368 97.1489 84.4502 97.1489 84.1702C97.1489 83.9835 97.0556 83.7036 96.8689 83.5169Z" fill="url(#paint96_linear)"/>
  <path d="M102.748 87.9965C102.468 88.1832 102.282 88.3698 102.282 88.6498C102.282 88.9298 102.468 89.1164 102.748 89.2098C102.935 89.3031 103.308 89.3964 103.588 89.3964C103.868 89.3964 104.242 89.3964 104.522 89.2098C104.802 89.1164 104.895 88.8365 104.895 88.5565C104.895 88.2765 104.708 88.0899 104.428 87.9032C104.148 87.8099 103.868 87.7166 103.588 87.7166C103.308 87.8099 103.028 87.9032 102.748 87.9965Z" fill="url(#paint97_linear)"/>
  <path d="M112.268 92.4761C111.988 92.2895 111.708 92.1962 111.334 92.1962C110.961 92.1962 110.681 92.2895 110.401 92.4761C110.214 92.6628 110.028 92.8494 110.028 93.1294C110.028 93.4094 110.214 93.5961 110.401 93.6894C110.681 93.876 110.961 93.9694 111.241 93.9694C111.521 93.9694 111.894 93.876 112.081 93.6894C112.268 93.5961 112.454 93.4094 112.454 93.1294C112.641 92.8494 112.454 92.6628 112.268 92.4761Z" fill="url(#paint98_linear)"/>
  <path d="M118.147 96.956C117.867 97.1426 117.681 97.3293 117.681 97.6092C117.681 97.8892 117.867 98.0759 118.054 98.1692C118.334 98.3558 118.614 98.4492 118.894 98.4492C119.174 98.4492 119.547 98.3558 119.734 98.1692C120.014 98.0759 120.2 97.8892 120.2 97.5159C120.2 97.1426 120.014 97.0493 119.734 96.8626C119.36 96.676 118.707 96.676 118.147 96.956Z" fill="url(#paint99_linear)"/>
  <path d="M127.666 101.436C127.386 101.249 127.107 101.156 126.733 101.156C126.36 101.156 126.08 101.249 125.8 101.436C125.613 101.622 125.427 101.809 125.427 102.089C125.427 102.369 125.613 102.556 125.8 102.649C126.08 102.836 126.36 102.929 126.64 102.929C126.92 102.929 127.293 102.836 127.48 102.649C127.573 102.649 127.666 102.556 127.76 102.462C127.853 102.369 127.853 102.276 127.853 102.089C128.133 101.809 127.946 101.622 127.666 101.436Z" fill="url(#paint100_linear)"/>
  <path d="M135.506 105.915C135.226 105.728 134.946 105.635 134.666 105.635C134.386 105.635 134.013 105.728 133.733 105.915C133.546 106.102 133.359 106.288 133.359 106.568C133.359 106.848 133.546 107.035 133.733 107.128C134.013 107.315 134.293 107.408 134.573 107.408C134.853 107.408 135.226 107.315 135.413 107.128C135.693 107.035 135.786 106.755 135.786 106.475C135.879 106.195 135.693 106.008 135.506 105.915Z" fill="url(#paint101_linear)"/>
  <path d="M143.159 110.395C142.879 110.208 142.599 110.115 142.319 110.115C142.039 110.115 141.665 110.208 141.386 110.395C141.199 110.581 141.012 110.768 141.012 111.048C141.012 111.328 141.199 111.515 141.386 111.608C141.852 111.981 142.599 111.981 143.159 111.608C143.439 111.515 143.625 111.235 143.625 110.955C143.532 110.675 143.439 110.488 143.159 110.395Z" fill="url(#paint102_linear)"/>
  <path d="M150.811 114.875C150.531 114.688 150.251 114.595 149.971 114.595C149.692 114.595 149.318 114.688 149.038 114.875C148.852 115.061 148.665 115.248 148.665 115.528C148.665 115.808 148.852 115.995 149.132 116.088C149.318 116.181 149.692 116.275 149.971 116.275C150.251 116.275 150.625 116.275 150.905 116.088C151.185 115.995 151.278 115.715 151.278 115.435C151.278 115.248 151.091 114.968 150.811 114.875Z" fill="url(#paint103_linear)"/>
  <path d="M158.651 119.261C158.371 119.074 158.091 118.981 157.718 118.981C157.438 118.981 157.064 119.074 156.784 119.261C156.598 119.447 156.411 119.634 156.411 119.914C156.411 120.194 156.598 120.381 156.784 120.474C157.064 120.661 157.344 120.754 157.624 120.754C157.904 120.754 158.278 120.661 158.464 120.474C158.651 120.381 158.837 120.194 158.837 119.914C159.024 119.634 158.837 119.447 158.651 119.261Z" fill="url(#paint104_linear)"/>
  <path d="M166.304 123.741C166.024 123.554 165.744 123.461 165.464 123.461C165.184 123.461 164.81 123.554 164.53 123.741C164.344 123.927 164.157 124.114 164.157 124.394C164.157 124.674 164.344 124.86 164.53 124.954C164.997 125.327 165.744 125.327 166.304 124.954C166.584 124.86 166.77 124.58 166.77 124.3C166.77 124.114 166.584 123.834 166.304 123.741Z" fill="url(#paint105_linear)"/>
  <path d="M174.05 128.22C173.77 128.034 173.49 127.94 173.21 127.94C172.93 127.94 172.556 128.034 172.277 128.22C172.09 128.407 171.903 128.593 171.903 128.873C171.903 129.153 172.09 129.34 172.277 129.433C172.556 129.62 172.836 129.713 173.116 129.713C173.396 129.713 173.77 129.62 173.956 129.433C174.236 129.34 174.33 129.06 174.33 128.78C174.516 128.593 174.33 128.407 174.05 128.22Z" fill="url(#paint106_linear)"/>
  <path d="M181.796 132.606C181.516 132.42 181.236 132.326 180.862 132.326C180.582 132.326 180.209 132.42 179.929 132.606C179.743 132.793 179.556 132.98 179.556 133.26C179.556 133.54 179.743 133.726 179.929 133.82C180.209 134.006 180.489 134.1 180.769 134.1C181.049 134.1 181.422 134.006 181.609 133.82C181.796 133.726 181.982 133.54 181.982 133.26C182.169 132.98 181.982 132.793 181.796 132.606Z" fill="url(#paint107_linear)"/>
  <path d="M189.635 137.179C189.355 136.993 188.981 136.899 188.701 136.899C188.421 136.899 188.048 136.993 187.768 137.179C187.582 137.366 187.395 137.553 187.395 137.833C187.395 138.113 187.582 138.299 187.768 138.393C188.235 138.766 188.981 138.766 189.541 138.393C189.728 138.299 189.915 138.019 189.915 137.833C189.915 137.553 189.821 137.366 189.635 137.179Z" fill="url(#paint108_linear)"/>
  <path d="M197.288 141.659C197.008 141.472 196.728 141.379 196.448 141.379C196.168 141.379 195.795 141.472 195.515 141.659C195.328 141.846 195.141 142.032 195.141 142.312C195.141 142.592 195.328 142.779 195.515 142.872C195.795 143.059 196.075 143.152 196.355 143.152C196.635 143.152 197.008 143.059 197.195 142.872C197.475 142.779 197.568 142.499 197.568 142.219C197.661 141.939 197.475 141.752 197.288 141.659Z" fill="url(#paint109_linear)"/>
  <path d="M204.941 146.045C204.661 145.859 204.381 145.765 204.007 145.765C203.727 145.765 203.354 145.859 203.074 146.045C202.887 146.232 202.701 146.419 202.701 146.699C202.701 146.978 202.887 147.165 203.074 147.258C203.354 147.445 203.634 147.538 203.914 147.538C204.194 147.538 204.474 147.445 204.754 147.258C205.034 147.165 205.314 146.978 205.314 146.699C205.407 146.419 205.22 146.139 204.941 146.045Z" fill="url(#paint110_linear)"/>
  <path opacity="0.5" d="M286.134 85.4782C286.507 85.6648 286.507 86.1314 286.134 86.3181L281.655 88.8379L204.194 133.541L128.32 88.4646L123.84 85.9448C123.467 85.7581 123.467 85.2915 123.84 85.1048L203.354 41.335C204.194 40.8683 205.221 40.8683 205.967 41.335L286.134 85.4782Z" fill="#B8B9BA"/>
  <path d="M280.908 79.6917L203.634 41.988L129.16 81.5583L123.84 79.8784C123.561 79.6917 123.654 81.2783 123.654 81.6516C123.654 81.8382 123.747 82.0249 123.934 82.0249L202.421 127.101C203.448 127.661 204.754 127.661 205.687 127.101L283.615 82.3049C283.801 82.2115 283.895 82.0249 283.895 81.9316C283.895 81.5583 284.081 79.9717 283.708 80.065L280.908 79.6917Z" fill="#B8B9BA"/>
  <path d="M202.421 125.515L123.933 80.4382C123.653 80.2516 123.653 79.785 123.933 79.5983L202.327 36.4817C203.167 36.0151 204.1 36.0151 204.94 36.4817L283.801 79.8783C284.081 80.0649 284.081 80.5316 283.801 80.7182L205.78 125.515C204.66 126.075 203.447 126.075 202.421 125.515Z" fill="#F4F5F6"/>
  <path d="M195.328 119.168L195.795 119.355L271.109 76.0515L270.642 75.8649L195.328 119.168Z" fill="#EAEBEC"/>
  <path d="M187.022 114.408L187.489 114.595L262.803 71.2918L262.336 71.1051L187.022 114.408Z" fill="#EAEBEC"/>
  <path d="M178.716 109.556L179.183 109.742L254.497 66.439L254.03 66.2523L178.716 109.556Z" fill="#EAEBEC"/>
  <path d="M170.41 104.703L170.877 104.89L246.191 61.5863L245.724 61.3997L170.41 104.703Z" fill="#EAEBEC"/>
  <path d="M162.104 99.943L162.571 100.13L237.885 56.8264L237.418 56.6398L162.104 99.943Z" fill="#EAEBEC"/>
  <path d="M153.798 95.0898L154.265 95.2764L229.579 51.9732L229.112 51.7865L153.798 95.0898Z" fill="#EAEBEC"/>
  <path d="M145.492 90.3305L145.959 90.5171L221.273 47.2139L220.806 47.0272L145.492 90.3305Z" fill="#EAEBEC"/>
  <path d="M137.28 85.4776L137.746 85.6642L212.967 42.361L212.5 42.1743L137.28 85.4776Z" fill="#EAEBEC"/>
  <path d="M128.973 80.6244L129.44 80.8111L204.754 37.5078L204.287 37.3212L128.973 80.6244Z" fill="#EAEBEC"/>
  <path d="M212.687 119.075L212.22 119.261L137.373 76.2382L137.839 76.0515L212.687 119.075Z" fill="#EAEBEC"/>
  <path d="M220.993 114.222L220.527 114.408L145.679 71.4785L146.146 71.2919L220.993 114.222Z" fill="#EAEBEC"/>
  <path d="M229.299 109.462L228.832 109.649L153.985 66.6254L154.452 66.4387L229.299 109.462Z" fill="#EAEBEC"/>
  <path d="M237.512 104.609L237.045 104.796L162.198 61.7725L162.664 61.5858L237.512 104.609Z" fill="#EAEBEC"/>
  <path d="M245.817 99.7563L245.351 99.943L170.503 56.9197L170.97 56.733L245.817 99.7563Z" fill="#EAEBEC"/>
  <path d="M254.124 94.9966L253.657 95.1832L178.81 52.1599L179.276 51.9733L254.124 94.9966Z" fill="#EAEBEC"/>
  <path d="M262.43 90.1438L261.963 90.3304L187.116 47.3071L187.582 47.1205L262.43 90.1438Z" fill="#EAEBEC"/>
  <path d="M270.736 85.384L270.269 85.5707L195.422 42.5474L195.888 42.3607L270.736 85.384Z" fill="#EAEBEC"/>
  <path d="M279.042 80.5313L278.575 80.7179L203.914 37.6013L204.381 37.4147L279.042 80.5313Z" fill="#EAEBEC"/>
  <path d="M203.541 123.741L204.008 123.928L279.322 80.6243L278.855 80.4376L203.541 123.741Z" fill="#EAEBEC"/>
  <path d="M203.821 123.648L203.354 123.834L128.693 80.7177L129.16 80.531L203.821 123.648Z" fill="#EAEBEC"/>
  <path opacity="0.8" d="M140.546 74.1845C140.546 74.1845 139.239 63.452 144.372 57.1991C150.345 49.9197 158.931 47.2133 171.717 46.1867C187.395 44.8801 193.275 43.9469 202.981 43.3869C203.168 43.0136 206.061 44.4135 206.061 44.4135L206.341 46.6533L140.546 86.8768C140.546 86.8768 140.546 81.6506 140.546 74.1845Z" fill="#0078D4"/>
  <path opacity="0.5" d="M143.252 82.3973C143.252 82.3973 141.759 66.7186 151.838 59.8124C162.664 52.3464 173.77 50.5732 193.835 47.2134C207.367 44.8803 209.42 43.947 209.42 43.947L209.7 47.0268L143.252 88.4635C143.252 88.4635 143.159 82.1174 143.252 82.3973Z" fill="#50E6FF"/>
  <path opacity="0.5" d="M145.772 83.3307C145.772 83.3307 145.119 75.118 156.318 67.6519C165.837 61.4924 185.902 55.2395 195.422 50.6666C210.261 43.5738 206.621 44.8804 206.621 44.8804V51.4132L145.772 90.1435C145.772 90.1435 145.679 83.0507 145.772 83.3307Z" fill="white"/>
  <path opacity="0.2" d="M201.674 89.957L208.207 93.7833L214.926 89.957L208.394 86.1306L201.674 89.957Z" fill="#1F1D21"/>
  <path opacity="0.2" d="M190.569 82.3974L196.915 86.3171L203.634 82.4907L197.102 78.571L190.569 82.3974Z" fill="#1F1D21"/>
  <path opacity="0.2" d="M212.874 83.7971L219.406 87.7168L226.033 83.7971L219.593 79.9707L212.874 83.7971Z" fill="#1F1D21"/>
  <path d="M211.006 39.9341L205.406 43.2005L199.807 39.9341L205.406 36.6677L211.006 39.9341Z" fill="#0078D4"/>
  <path d="M211.007 39.9342L210.727 76.9846L205.221 80.251L205.407 43.2006L211.007 39.9342Z" fill="#185A97"/>
  <path d="M205.5 43.1074L205.313 80.1578L199.714 76.8914L199.9 39.8409L205.5 43.1074Z" fill="#185A97"/>
  <path d="M201.207 45.5336L195.701 48.7067L190.101 45.4403L195.608 42.2672L201.207 45.5336Z" fill="#156AB3"/>
  <path d="M201.207 45.5336L201.02 82.584L195.514 85.8504L195.701 48.8L201.207 45.5336Z" fill="#1D4A79"/>
  <path d="M195.701 48.7067L195.514 85.7571L189.915 82.4907L190.101 45.4403L195.701 48.7067Z" fill="#1D4A79"/>
  <path d="M191.595 50.6666L185.995 53.933L180.396 50.6666L185.995 47.4935L191.595 50.6666Z" fill="#185A97"/>
  <path d="M191.594 50.6666L191.314 87.717L185.808 90.8901L185.995 53.8397L191.594 50.6666Z" fill="#243A5E"/>
  <path d="M186.088 53.9331L185.902 90.9835L180.302 87.8104L180.489 50.76L186.088 53.9331Z" fill="#243A5E"/>
  <path d="M220.712 46.3737L215.206 49.6401L209.606 46.3737L215.206 43.1073L220.712 46.3737Z" fill="#32B0E7"/>
  <path d="M220.712 46.3738L220.526 83.4242L215.02 86.6906L215.206 49.6402L220.712 46.3738Z" fill="#2195DC"/>
  <path d="M215.206 49.5467L215.02 86.5971L209.42 83.3307L209.607 46.2803L215.206 49.5467Z" fill="#2195DC"/>
  <path d="M210.913 51.9731L205.406 55.2395L199.807 51.9731L205.313 48.7067L210.913 51.9731Z" fill="#2195DC"/>
  <path d="M210.913 51.9731L210.726 89.0236L205.127 92.29L205.407 55.2396L210.913 51.9731Z" fill="#0078D4"/>
  <path d="M205.5 55.2396L205.22 92.29L199.621 89.0236L199.901 51.9731L205.5 55.2396Z" fill="#0078D4"/>
  <path d="M201.301 57.1995L195.795 60.4659L190.195 57.1995L195.795 53.9331L201.301 57.1995Z" fill="#0078D4"/>
  <path d="M201.3 57.1996L201.114 94.25L195.608 97.5164L195.794 60.466L201.3 57.1996Z" fill="#156AB3"/>
  <path d="M195.794 60.466L195.608 97.5164L190.008 94.25L190.195 57.1996L195.794 60.466Z" fill="#156AB3"/>
  <path d="M230.418 52.9067L224.912 56.1731L219.312 52.9067L224.818 49.6403L230.418 52.9067Z" fill="#ACF3FD"/>
  <path d="M230.418 52.9061L230.232 89.9565L224.632 93.223L224.912 56.1725L230.418 52.9061Z" fill="#84ECFD"/>
  <path d="M225.006 56.0796L224.726 93.1301L219.219 89.8637L219.406 52.8132L225.006 56.0796Z" fill="#50E6FF"/>
  <path d="M220.712 58.5061L215.113 61.7725L209.606 58.5061L215.113 55.333L220.712 58.5061Z" fill="#50E6FF"/>
  <path d="M220.712 58.5061L220.432 95.5565L214.926 98.7296L215.113 61.6792L220.712 58.5061Z" fill="#45CAF2"/>
  <path d="M215.113 61.6792L214.926 98.7296L209.327 95.5565L209.607 58.5061L215.113 61.6792Z" fill="#45CAF2"/>
  <path d="M211.006 63.639L205.5 66.9054L199.9 63.639L205.407 60.4659L211.006 63.639Z" fill="#45CAF2"/>
  <path d="M211.007 63.6389L210.82 100.689L205.221 103.862L205.501 66.812L211.007 63.6389Z" fill="#32B0E7"/>
  <path d="M205.593 66.9055L205.313 103.956L199.807 100.783L199.994 63.7324L205.593 66.9055Z" fill="#32B0E7"/>
  <path d="M195.701 47.4938L192.155 45.4406L195.701 43.3875L199.248 45.4406L195.701 47.4938ZM195.608 44.694L194.208 45.5339L195.608 46.3739L197.008 45.5339L195.608 44.694Z" fill="#2195DC"/>
  <path d="M215.206 60.6524L211.566 58.5059L215.206 56.3594L218.846 58.5059L215.206 60.6524ZM215.206 57.6659L213.713 58.5059L215.206 59.3458L216.699 58.5059L215.206 57.6659Z" fill="#ACF3FD"/>
  <path d="M201.86 52.16C201.674 52.0667 201.674 51.7867 201.86 51.6934C202.047 51.6001 202.42 51.6001 202.7 51.6934C202.887 51.7867 202.887 52.0667 202.7 52.16C202.42 52.3467 202.047 52.3467 201.86 52.16Z" fill="#32B0E7"/>
  <path d="M203.447 53.0935C203.261 53.0002 203.261 52.7202 203.447 52.6269C203.634 52.5336 204.007 52.5336 204.287 52.6269C204.474 52.7202 204.474 53.0002 204.287 53.0935C204.007 53.2802 203.634 53.2802 203.447 53.0935Z" fill="#32B0E7"/>
  <path d="M203.447 51.2271C203.261 51.1337 203.261 50.8538 203.447 50.7604C203.634 50.6671 204.007 50.6671 204.287 50.7604C204.474 50.8538 204.474 51.1337 204.287 51.2271C204.007 51.4137 203.634 51.4137 203.447 51.2271Z" fill="#32B0E7"/>
  <path d="M205.034 52.16C204.847 52.0667 204.847 51.7867 205.034 51.6934C205.22 51.6001 205.594 51.6001 205.874 51.6934C206.06 51.7867 206.06 52.0667 205.874 52.16C205.594 52.3467 205.314 52.3467 205.034 52.16Z" fill="#32B0E7"/>
  <path d="M205.034 50.2936C204.847 50.2003 204.847 49.9203 205.034 49.827C205.22 49.7336 205.594 49.7336 205.874 49.827C206.06 49.9203 206.06 50.2003 205.874 50.2936C205.594 50.4802 205.314 50.4802 205.034 50.2936Z" fill="#32B0E7"/>
  <path d="M206.62 51.2271C206.434 51.1337 206.434 50.8538 206.62 50.7604C206.807 50.6671 207.18 50.6671 207.46 50.7604C207.647 50.8538 207.647 51.1337 207.46 51.2271C207.274 51.4137 206.9 51.4137 206.62 51.2271Z" fill="#32B0E7"/>
  <path d="M205.034 54.0265C204.847 53.9332 204.847 53.6532 205.034 53.5599C205.22 53.4665 205.594 53.4665 205.874 53.5599C206.06 53.6532 206.06 53.9332 205.874 54.0265C205.594 54.2131 205.314 54.2131 205.034 54.0265Z" fill="#32B0E7"/>
  <path d="M206.714 53.0935C206.527 53.0002 206.527 52.7202 206.714 52.6269C206.9 52.5336 207.274 52.5336 207.554 52.6269C207.74 52.7202 207.74 53.0002 207.554 53.0935C207.274 53.2802 206.9 53.2802 206.714 53.0935Z" fill="#32B0E7"/>
  <path d="M208.3 52.16C208.113 52.0667 208.113 51.7867 208.3 51.6934C208.487 51.6001 208.86 51.6001 209.14 51.6934C209.327 51.7867 209.327 52.0667 209.14 52.16C208.86 52.3467 208.487 52.3467 208.3 52.16Z" fill="#32B0E7"/>
  <path d="M198.128 58.0391L196.541 57.1059L198.128 56.1726L199.714 57.1059L198.128 58.0391ZM198.128 56.5459L197.194 57.1059L198.128 57.6658L199.061 57.1059L198.128 56.5459Z" fill="#2195DC"/>
  <path d="M195.794 56.7325L194.208 55.7992L195.794 54.866L197.381 55.7992L195.794 56.7325ZM195.794 55.2393L194.861 55.7992L195.794 56.3592L196.727 55.7992L195.794 55.2393Z" fill="#2195DC"/>
  <path d="M193.555 58.0391L191.968 57.1059L193.555 56.1726L195.141 57.1059L193.555 58.0391ZM193.555 56.6392L192.621 57.1992L193.555 57.7591L194.488 57.1992L193.555 56.6392Z" fill="#2195DC"/>
  <path d="M195.887 59.3456L194.301 58.4124L195.887 57.4791L197.474 58.4124L195.887 59.3456ZM195.794 57.8524L194.861 58.4124L195.794 58.9723L196.727 58.4124L195.794 57.8524Z" fill="#2195DC"/>
  <path d="M217.445 47.2141L215.859 46.2808L217.445 45.3475L219.032 46.2808L217.445 47.2141ZM217.445 45.7208L216.512 46.2808L217.445 46.8408L218.379 46.2808L217.445 45.7208Z" fill="#45CAF2"/>
  <path d="M215.205 45.9075L213.619 44.9743L215.205 44.041L216.792 44.9743L215.205 45.9075ZM215.205 44.4143L214.272 44.9743L215.205 45.5342L216.139 44.9743L215.205 44.4143Z" fill="#45CAF2"/>
  <path d="M212.966 47.2141L211.379 46.2808L212.966 45.3475L214.552 46.2808L212.966 47.2141ZM212.872 45.7208L211.939 46.2808L212.872 46.8408L213.806 46.2808L212.872 45.7208Z" fill="#45CAF2"/>
  <path d="M215.205 48.5207L213.619 47.5874L215.205 46.6542L216.792 47.5874L215.205 48.5207ZM215.205 47.0275L214.272 47.5874L215.205 48.1474L216.139 47.5874L215.205 47.0275Z" fill="#45CAF2"/>
  <path d="M205.5 42.081L201.58 39.8411L205.5 37.6013L209.419 39.8411L205.5 42.081ZM205.5 38.3479L202.98 39.8411L205.5 41.3344L208.02 39.8411L205.5 38.3479Z" fill="#2195DC"/>
  <path d="M205.5 65.692L201.954 63.6389L205.5 61.5857L209.047 63.6389L205.5 65.692ZM205.5 62.3323L203.261 63.6389L205.5 64.9454L207.74 63.6389L205.5 62.3323Z" fill="#50E6FF"/>
  <path d="M223.139 52.8128L224.912 51.8795L226.686 52.8128L224.912 53.8394L223.139 52.8128Z" fill="#D5F9FD"/>
  <path d="M224.912 55.0529L221.086 52.8131L224.912 50.5732L228.739 52.8131L224.912 55.0529ZM224.912 51.4132L222.486 52.8131L224.912 54.213L227.339 52.8131L224.912 51.4132Z" fill="#D5F9FD"/>
  <path d="M184.408 50.76L185.995 49.8268L187.675 50.76L185.995 51.6933L184.408 50.76Z" fill="#0078D4"/>
  <path d="M186.088 52.813L182.542 50.7598L186.088 48.7067L189.635 50.7598L186.088 52.813ZM185.995 49.4533L183.755 50.7598L185.995 52.0664L188.235 50.7598L185.995 49.4533Z" fill="#0078D4"/>
  <path opacity="0.5" d="M239.565 24.9086C239.565 12.6829 226.966 0.923828 205.034 0.923828C183.196 0.923828 170.597 13.8028 170.597 26.1218C170.597 36.0144 176.196 91.1701 176.196 91.1701L205.781 108.435L234.712 90.7968C234.619 90.5168 239.565 34.4279 239.565 24.9086Z" fill="url(#paint111_linear)"/>
  <path d="M240.218 92.7564C235.365 92.7564 230.419 91.3565 226.126 88.65L206.9 76.051C203.261 73.6245 198.501 73.6245 194.861 75.8644L191.688 77.8242L191.502 77.5442L194.675 75.5844C198.501 73.2512 203.354 73.2512 207.18 75.771L226.406 88.37C235.178 93.9696 246.471 93.783 255.057 87.8101L266.722 79.6907L266.909 79.9707L255.243 88.0901C250.577 91.1698 245.444 92.7564 240.218 92.7564Z" fill="#45C9F1"/>
  <path d="M202.421 92.3831L202.234 92.1031L221.646 80.904C228.085 76.8909 236.298 76.611 243.017 80.2507C243.671 80.624 244.417 80.624 245.071 80.2507L251.697 76.611L251.79 76.8909L245.164 80.5307C244.417 80.904 243.577 80.904 242.831 80.5307C236.205 76.8909 228.179 77.1709 221.739 81.1839L202.421 92.3831Z" fill="#0062AD"/>
  <path d="M238.98 68.7426L201.557 91.2622L201.702 91.5021L239.124 68.9825L238.98 68.7426Z" fill="#1E9FE0"/>
  <path d="M194.675 76.4248L181.702 83.7042V79.8778L194.675 72.5984V76.4248Z" fill="#45C9F1"/>
  <path d="M194.675 77.358L181.702 84.6374V80.811L194.675 73.5316V77.358Z" fill="white"/>
  <path d="M207.087 89.3968L194.208 96.6762V92.8499L207.087 85.5704V89.3968Z" fill="#0062AD"/>
  <path d="M207.087 90.3302L194.208 97.6096V93.7832L207.087 86.5038V90.3302Z" fill="white"/>
  <path d="M249.644 63.8256L236.765 71.1051V67.372L249.644 59.9993V63.8256Z" fill="#1E9FE0"/>
  <path d="M249.644 64.7591L236.765 72.0385V68.3055L249.644 60.9327V64.7591Z" fill="white"/>
  <path d="M273.535 77.8244L260.656 85.1038V81.2775L273.535 73.998V77.8244Z" fill="#45C9F1"/>
  <path d="M273.535 78.7576L260.656 86.0371V82.2107L273.535 74.9313V78.7576Z" fill="white"/>
  <path d="M262.803 71.2917L249.924 78.5711V74.8381L262.803 67.4653V71.2917Z" fill="#0062AD"/>
  <path d="M262.803 72.2249L249.924 79.5043V75.7713L262.803 68.3986V72.2249Z" fill="white"/>
  <path d="M263.082 83.891C263.269 83.7977 263.362 83.5177 263.362 83.3311C263.362 83.1444 263.269 83.0511 263.082 83.1444C262.896 83.2377 262.802 83.5177 262.802 83.7044C262.802 83.891 262.896 83.9843 263.082 83.891Z" fill="#45C9F1"/>
  <path d="M261.683 84.731C261.87 84.6377 261.963 84.3577 261.963 84.171C261.963 83.9844 261.87 83.891 261.683 83.9844C261.496 84.0777 261.403 84.3577 261.403 84.5443C261.31 84.731 261.496 84.8243 261.683 84.731Z" fill="#45C9F1"/>
  <path d="M263.082 82.3045C263.269 82.2111 263.362 81.9312 263.362 81.7445C263.362 81.5579 263.269 81.4645 263.082 81.5579C262.896 81.6512 262.802 81.9312 262.802 82.1178C262.802 82.3045 262.896 82.3978 263.082 82.3045Z" fill="#45C9F1"/>
  <path d="M261.683 83.051C261.87 82.9577 261.963 82.6777 261.963 82.4911C261.963 82.3044 261.87 82.2111 261.683 82.3044C261.496 82.3978 261.403 82.6777 261.403 82.8644C261.31 83.1444 261.496 83.1444 261.683 83.051Z" fill="#45C9F1"/>
  <path d="M237.418 68.6784L239.471 67.5585V69.8916L237.418 71.0115V68.6784ZM238.818 68.5851L237.978 69.0517V69.9849L238.818 69.5183V68.5851Z" fill="#1E9FE0"/>
  <path d="M252.63 77.2648V76.7982L250.577 77.9181V78.3848L252.63 77.2648Z" fill="#0062AD"/>
  <path d="M252.63 75.3979V74.9313L250.577 76.1445V76.6111L252.63 75.3979Z" fill="#0062AD"/>
  <path d="M252.63 76.3316V75.865L250.577 77.0782V77.5449L252.63 76.3316Z" fill="#0062AD"/>
  <path d="M193.817 75.5037C193.972 75.2363 193.99 74.9565 193.856 74.8788C193.722 74.8011 193.488 74.9549 193.333 75.2223C193.177 75.4897 193.16 75.7694 193.293 75.8471C193.427 75.9248 193.661 75.771 193.817 75.5037Z" fill="#45C9F1"/>
  <path d="M193.805 76.8212C193.961 76.5538 193.978 76.274 193.844 76.1963C193.711 76.1186 193.476 76.2724 193.321 76.5398C193.166 76.8072 193.148 77.0869 193.282 77.1646C193.415 77.2423 193.65 77.0886 193.805 76.8212Z" fill="#45C9F1"/>
  <path d="M192.613 77.5342C192.769 77.2668 192.786 76.9871 192.653 76.9094C192.519 76.8317 192.285 76.9854 192.129 77.2528C191.974 77.5202 191.956 77.7999 192.09 77.8776C192.224 77.9553 192.458 77.8016 192.613 77.5342Z" fill="#45C9F1"/>
  <path d="M192.625 76.2164C192.78 75.9491 192.798 75.6693 192.664 75.5916C192.531 75.5139 192.296 75.6677 192.141 75.9351C191.985 76.2024 191.968 76.4822 192.101 76.5599C192.235 76.6376 192.469 76.4838 192.625 76.2164Z" fill="#45C9F1"/>
  <path d="M205.408 88.0901L206.341 87.5302V88.5567L205.408 89.1167V88.0901ZM206.154 87.9034L205.688 88.1834V88.7434L206.154 88.4634V87.9034Z" fill="#0062AD"/>
  <path d="M205.408 89.4901L206.341 88.9302V89.9568L205.408 90.5167V89.4901ZM206.154 89.3035L205.688 89.5835V90.1434L206.154 89.8634V89.3035Z" fill="#0062AD"/>
  <path d="M204.194 90.2366L205.128 89.6766V90.7032L204.194 91.2632V90.2366ZM204.848 90.0499L204.381 90.3299V90.8899L204.848 90.6099V90.0499Z" fill="#0062AD"/>
  <path d="M204.194 88.8369L205.128 88.277V89.3036L204.194 89.8635V88.8369ZM204.848 88.6503L204.381 88.9303V89.4902L204.848 89.2102V88.6503Z" fill="#0062AD"/>
  <path d="M258.604 85.8512C258.417 85.8512 258.23 85.6646 258.23 85.3846C258.23 85.0113 258.417 84.638 258.79 84.4514C258.884 84.358 258.977 84.358 259.07 84.358C259.257 84.358 259.443 84.5447 259.443 84.8247C259.443 85.198 259.257 85.5713 258.884 85.7579C258.79 85.8512 258.697 85.8512 258.604 85.8512Z" fill="white"/>
  <path d="M259.07 84.5439C259.256 84.5439 259.35 84.6372 259.35 84.8239C259.35 85.1038 259.163 85.4771 258.883 85.5705C258.79 85.5705 258.696 85.6638 258.696 85.6638C258.51 85.6638 258.416 85.5705 258.416 85.3838C258.416 85.1038 258.603 84.7305 258.883 84.6372C258.883 84.5439 258.976 84.5439 259.07 84.5439ZM259.07 84.2639C258.976 84.2639 258.883 84.2639 258.696 84.3572C258.323 84.5439 258.136 85.0105 258.136 85.3838C258.136 85.7571 258.323 85.9438 258.696 85.9438C258.79 85.9438 258.883 85.9438 259.07 85.8505C259.443 85.6638 259.63 85.1972 259.63 84.8239C259.536 84.4506 259.35 84.2639 259.07 84.2639Z" fill="#45C9F1"/>
  <path d="M247.778 79.5986C247.591 79.5986 247.405 79.4119 247.405 79.1319C247.405 78.7586 247.591 78.3853 247.965 78.1987C248.058 78.1054 248.151 78.1053 248.245 78.1053C248.431 78.1053 248.618 78.292 248.618 78.572C248.618 78.9453 248.431 79.3186 248.058 79.5052C247.965 79.5052 247.871 79.5986 247.778 79.5986Z" fill="white"/>
  <path d="M248.244 78.2912C248.431 78.2912 248.524 78.3845 248.524 78.5712C248.524 78.8512 248.337 79.2245 248.057 79.3178C247.964 79.3178 247.871 79.4111 247.871 79.4111C247.684 79.4111 247.591 79.3178 247.591 79.1311C247.591 78.8512 247.777 78.4779 248.057 78.3845C248.057 78.2912 248.151 78.2912 248.244 78.2912ZM248.244 78.0112C248.151 78.0112 248.057 78.0112 247.871 78.1046C247.497 78.2912 247.311 78.7578 247.311 79.1311C247.311 79.5045 247.497 79.6911 247.871 79.6911C247.964 79.6911 248.057 79.6911 248.244 79.5978C248.617 79.4111 248.804 78.9445 248.804 78.5712C248.711 78.1979 248.524 78.0112 248.244 78.0112Z" fill="#0062AD"/>
  <path d="M195.515 75.9579C195.328 75.9579 195.141 75.7713 195.141 75.4913C195.141 75.118 195.328 74.7447 195.701 74.558C195.795 74.4647 195.888 74.4647 195.981 74.4647C196.168 74.4647 196.355 74.6514 196.355 74.9314C196.355 75.3047 196.168 75.678 195.795 75.8646C195.701 75.8646 195.608 75.9579 195.515 75.9579Z" fill="white"/>
  <path d="M195.888 74.6513C196.074 74.6513 196.168 74.7446 196.168 74.9313C196.168 75.2113 195.981 75.5846 195.701 75.6779C195.608 75.6779 195.514 75.7712 195.514 75.7712C195.328 75.7712 195.234 75.6779 195.234 75.4913C195.234 75.2113 195.421 74.838 195.701 74.7446C195.794 74.6513 195.888 74.6513 195.888 74.6513ZM195.888 74.3713C195.794 74.3713 195.701 74.3713 195.514 74.4647C195.141 74.6513 194.954 75.118 194.954 75.4913C194.954 75.8646 195.141 76.0512 195.514 76.0512C195.608 76.0512 195.701 76.0512 195.888 75.9579C196.261 75.7712 196.448 75.3046 196.448 74.9313C196.448 74.558 196.261 74.3713 195.888 74.3713Z" fill="#45C9F1"/>
  <path d="M208.674 87.7172C208.487 87.7172 208.301 87.5306 208.301 87.2506C208.301 86.8773 208.487 86.504 208.86 86.3173C208.954 86.224 209.047 86.224 209.14 86.224C209.327 86.224 209.514 86.4107 209.514 86.6906C209.514 87.0639 209.327 87.4372 208.954 87.6239C208.767 87.7172 208.674 87.7172 208.674 87.7172Z" fill="white"/>
  <path d="M209.047 86.4106C209.234 86.4106 209.327 86.5039 209.327 86.6906C209.327 86.9705 209.14 87.3438 208.86 87.4372C208.767 87.4372 208.674 87.5305 208.674 87.5305C208.487 87.5305 208.394 87.4372 208.394 87.2505C208.394 86.9705 208.58 86.5972 208.86 86.5039C208.86 86.5039 208.954 86.4106 209.047 86.4106ZM209.047 86.1306C208.954 86.1306 208.86 86.1306 208.674 86.2239C208.3 86.4106 208.114 86.8772 208.114 87.2505C208.114 87.6238 208.3 87.8105 208.674 87.8105C208.767 87.8105 208.86 87.8105 209.047 87.7172C209.42 87.5305 209.607 87.0639 209.607 86.6906C209.607 86.4106 209.327 86.1306 209.047 86.1306Z" fill="#1E9FE0"/>
  <path d="M210.354 88.2769C210.167 88.2769 209.981 88.0903 209.981 87.8103C209.981 87.437 210.167 87.0637 210.541 86.877C210.634 86.7837 210.727 86.7837 210.821 86.7837C211.007 86.7837 211.194 86.9703 211.194 87.2503C211.194 87.6236 211.007 87.9969 210.634 88.1836C210.541 88.1836 210.447 88.2769 210.354 88.2769Z" fill="white"/>
  <path d="M210.727 86.9703C210.914 86.9703 211.007 87.0636 211.007 87.2503C211.007 87.5302 210.82 87.9035 210.54 87.9969C210.447 87.9969 210.354 88.0902 210.354 88.0902C210.167 88.0902 210.074 87.9969 210.074 87.8102C210.074 87.5302 210.26 87.1569 210.54 87.0636C210.634 86.9703 210.634 86.9703 210.727 86.9703ZM210.727 86.6903C210.634 86.6903 210.54 86.6903 210.354 86.7836C209.98 86.9703 209.794 87.4369 209.794 87.8102C209.794 88.1835 209.98 88.3702 210.354 88.3702C210.447 88.3702 210.54 88.3702 210.727 88.2768C211.1 88.0902 211.287 87.6236 211.287 87.2503C211.287 86.877 211.007 86.6903 210.727 86.6903Z" fill="#0062AD"/>
  <path d="M234.712 72.0389C234.525 72.0389 234.339 71.9456 234.339 71.5723C234.339 71.2923 234.525 70.919 234.805 70.7324C234.899 70.639 234.992 70.639 235.085 70.639C235.272 70.639 235.459 70.7324 235.459 71.1057C235.459 71.3856 235.272 71.759 234.992 71.9456C234.805 72.0389 234.805 72.0389 234.712 72.0389Z" fill="white"/>
  <path d="M235.085 70.825C235.178 70.825 235.271 70.9183 235.271 71.105C235.271 71.385 235.085 71.665 234.898 71.8516C234.805 71.8516 234.805 71.9449 234.712 71.9449C234.618 71.9449 234.525 71.8516 234.525 71.665C234.525 71.385 234.712 71.105 234.898 70.9183C234.898 70.825 234.991 70.825 235.085 70.825ZM235.085 70.545C234.991 70.545 234.898 70.545 234.805 70.6384C234.525 70.825 234.245 71.1983 234.245 71.5716C234.245 71.9449 234.432 72.1316 234.712 72.1316C234.805 72.1316 234.898 72.1316 234.991 72.0383C235.271 71.8516 235.551 71.4783 235.551 71.105C235.551 70.7317 235.365 70.545 235.085 70.545Z" fill="#1E9FE0"/>
  <defs>
    <linearGradient id="paint0_linear" x1="167.11" y1="156.749" x2="240.795" y2="29.1214" gradientUnits="userSpaceOnUse">
      <stop stop-color="#50E6FF"/>
      <stop offset="1" stop-color="#0078D4"/>
    </linearGradient>
    <linearGradient id="paint1_linear" x1="170.562" y1="151.344" x2="237.183" y2="35.9531" gradientUnits="userSpaceOnUse">
      <stop stop-color="#50E6FF"/>
      <stop offset="1" stop-color="#0078D4"/>
    </linearGradient>
    <linearGradient id="paint2_linear" x1="174.373" y1="145.65" x2="234.395" y2="41.6892" gradientUnits="userSpaceOnUse">
      <stop stop-color="#50E6FF"/>
      <stop offset="1" stop-color="#0078D4"/>
    </linearGradient>
    <linearGradient id="paint3_linear" x1="177.068" y1="139.909" x2="230.704" y2="47.0085" gradientUnits="userSpaceOnUse">
      <stop stop-color="#50E6FF"/>
      <stop offset="1" stop-color="#0078D4"/>
    </linearGradient>
    <linearGradient id="paint4_linear" x1="180.524" y1="133.77" x2="227.184" y2="52.9534" gradientUnits="userSpaceOnUse">
      <stop stop-color="#50E6FF"/>
      <stop offset="1" stop-color="#0078D4"/>
    </linearGradient>
    <linearGradient id="paint5_linear" x1="183.772" y1="128.07" x2="223.789" y2="58.7592" gradientUnits="userSpaceOnUse">
      <stop stop-color="#50E6FF"/>
      <stop offset="1" stop-color="#0078D4"/>
    </linearGradient>
    <linearGradient id="paint6_linear" x1="267.192" y1="95.1733" x2="189.07" y2="5.17306" gradientUnits="userSpaceOnUse">
      <stop stop-color="#4DC1EA"/>
      <stop offset="0.585" stop-color="#0078D4"/>
    </linearGradient>
    <linearGradient id="paint7_linear" x1="269.343" y1="93.3054" x2="191.221" y2="3.3055" gradientUnits="userSpaceOnUse">
      <stop stop-color="#4DC1EA"/>
      <stop offset="0.585" stop-color="#0078D4"/>
    </linearGradient>
    <linearGradient id="paint8_linear" x1="271.575" y1="91.3686" x2="193.453" y2="1.36848" gradientUnits="userSpaceOnUse">
      <stop stop-color="#4DC1EA"/>
      <stop offset="0.585" stop-color="#0078D4"/>
    </linearGradient>
    <linearGradient id="paint9_linear" x1="273.742" y1="89.4877" x2="195.62" y2="-0.512729" gradientUnits="userSpaceOnUse">
      <stop stop-color="#4DC1EA"/>
      <stop offset="0.585" stop-color="#0078D4"/>
    </linearGradient>
    <linearGradient id="paint10_linear" x1="275.94" y1="87.5795" x2="197.818" y2="-2.42055" gradientUnits="userSpaceOnUse">
      <stop stop-color="#4DC1EA"/>
      <stop offset="0.585" stop-color="#0078D4"/>
    </linearGradient>
    <linearGradient id="paint11_linear" x1="278.163" y1="85.6496" x2="200.041" y2="-4.35087" gradientUnits="userSpaceOnUse">
      <stop stop-color="#4DC1EA"/>
      <stop offset="0.585" stop-color="#0078D4"/>
    </linearGradient>
    <linearGradient id="paint12_linear" x1="280.403" y1="83.7057" x2="202.281" y2="-6.29427" gradientUnits="userSpaceOnUse">
      <stop stop-color="#4DC1EA"/>
      <stop offset="0.585" stop-color="#0078D4"/>
    </linearGradient>
    <linearGradient id="paint13_linear" x1="282.582" y1="81.8138" x2="204.46" y2="-8.18629" gradientUnits="userSpaceOnUse">
      <stop stop-color="#4DC1EA"/>
      <stop offset="0.585" stop-color="#0078D4"/>
    </linearGradient>
    <linearGradient id="paint14_linear" x1="284.741" y1="79.9392" x2="206.62" y2="-10.0609" gradientUnits="userSpaceOnUse">
      <stop stop-color="#4DC1EA"/>
      <stop offset="0.585" stop-color="#0078D4"/>
    </linearGradient>
    <linearGradient id="paint15_linear" x1="286.92" y1="78.0479" x2="208.798" y2="-11.9523" gradientUnits="userSpaceOnUse">
      <stop stop-color="#4DC1EA"/>
      <stop offset="0.585" stop-color="#0078D4"/>
    </linearGradient>
    <linearGradient id="paint16_linear" x1="289.167" y1="76.0975" x2="211.045" y2="-13.9026" gradientUnits="userSpaceOnUse">
      <stop stop-color="#4DC1EA"/>
      <stop offset="0.585" stop-color="#0078D4"/>
    </linearGradient>
    <linearGradient id="paint17_linear" x1="291.368" y1="74.1869" x2="213.246" y2="-15.8134" gradientUnits="userSpaceOnUse">
      <stop stop-color="#4DC1EA"/>
      <stop offset="0.585" stop-color="#0078D4"/>
    </linearGradient>
    <linearGradient id="paint18_linear" x1="293.553" y1="72.291" x2="215.431" y2="-17.7093" gradientUnits="userSpaceOnUse">
      <stop stop-color="#4DC1EA"/>
      <stop offset="0.585" stop-color="#0078D4"/>
    </linearGradient>
    <linearGradient id="paint19_linear" x1="295.715" y1="70.4148" x2="217.593" y2="-19.5847" gradientUnits="userSpaceOnUse">
      <stop stop-color="#4DC1EA"/>
      <stop offset="0.585" stop-color="#0078D4"/>
    </linearGradient>
    <linearGradient id="paint20_linear" x1="297.922" y1="68.4983" x2="219.8" y2="-21.5021" gradientUnits="userSpaceOnUse">
      <stop stop-color="#4DC1EA"/>
      <stop offset="0.585" stop-color="#0078D4"/>
    </linearGradient>
    <linearGradient id="paint21_linear" x1="260.588" y1="100.905" x2="182.466" y2="10.9052" gradientUnits="userSpaceOnUse">
      <stop stop-color="#4DC1EA"/>
      <stop offset="0.585" stop-color="#0078D4"/>
    </linearGradient>
    <linearGradient id="paint22_linear" x1="262.795" y1="98.9901" x2="184.673" y2="8.98968" gradientUnits="userSpaceOnUse">
      <stop stop-color="#4DC1EA"/>
      <stop offset="0.585" stop-color="#0078D4"/>
    </linearGradient>
    <linearGradient id="paint23_linear" x1="264.926" y1="97.1395" x2="186.804" y2="7.13937" gradientUnits="userSpaceOnUse">
      <stop stop-color="#4DC1EA"/>
      <stop offset="0.585" stop-color="#0078D4"/>
    </linearGradient>
    <linearGradient id="paint24_linear" x1="267.174" y1="95.1888" x2="189.052" y2="5.18882" gradientUnits="userSpaceOnUse">
      <stop stop-color="#4DC1EA"/>
      <stop offset="0.585" stop-color="#0078D4"/>
    </linearGradient>
    <linearGradient id="paint25_linear" x1="269.343" y1="93.3061" x2="191.221" y2="3.30574" gradientUnits="userSpaceOnUse">
      <stop stop-color="#4DC1EA"/>
      <stop offset="0.585" stop-color="#0078D4"/>
    </linearGradient>
    <linearGradient id="paint26_linear" x1="271.596" y1="91.3503" x2="193.474" y2="1.35022" gradientUnits="userSpaceOnUse">
      <stop stop-color="#4DC1EA"/>
      <stop offset="0.585" stop-color="#0078D4"/>
    </linearGradient>
    <linearGradient id="paint27_linear" x1="273.759" y1="89.4725" x2="195.637" y2="-0.527837" gradientUnits="userSpaceOnUse">
      <stop stop-color="#4DC1EA"/>
      <stop offset="0.585" stop-color="#0078D4"/>
    </linearGradient>
    <linearGradient id="paint28_linear" x1="275.975" y1="87.5486" x2="197.853" y2="-2.45137" gradientUnits="userSpaceOnUse">
      <stop stop-color="#4DC1EA"/>
      <stop offset="0.585" stop-color="#0078D4"/>
    </linearGradient>
    <linearGradient id="paint29_linear" x1="278.146" y1="85.6643" x2="200.024" y2="-4.33547" gradientUnits="userSpaceOnUse">
      <stop stop-color="#4DC1EA"/>
      <stop offset="0.585" stop-color="#0078D4"/>
    </linearGradient>
    <linearGradient id="paint30_linear" x1="280.386" y1="83.7204" x2="202.264" y2="-6.28012" gradientUnits="userSpaceOnUse">
      <stop stop-color="#4DC1EA"/>
      <stop offset="0.585" stop-color="#0078D4"/>
    </linearGradient>
    <linearGradient id="paint31_linear" x1="282.561" y1="81.8321" x2="204.439" y2="-8.16782" gradientUnits="userSpaceOnUse">
      <stop stop-color="#4DC1EA"/>
      <stop offset="0.585" stop-color="#0078D4"/>
    </linearGradient>
    <linearGradient id="paint32_linear" x1="284.772" y1="79.9128" x2="206.651" y2="-10.0873" gradientUnits="userSpaceOnUse">
      <stop stop-color="#4DC1EA"/>
      <stop offset="0.585" stop-color="#0078D4"/>
    </linearGradient>
    <linearGradient id="paint33_linear" x1="286.948" y1="78.0242" x2="208.826" y2="-11.9756" gradientUnits="userSpaceOnUse">
      <stop stop-color="#4DC1EA"/>
      <stop offset="0.585" stop-color="#0078D4"/>
    </linearGradient>
    <linearGradient id="paint34_linear" x1="289.157" y1="76.1069" x2="211.035" y2="-13.8933" gradientUnits="userSpaceOnUse">
      <stop stop-color="#4DC1EA"/>
      <stop offset="0.585" stop-color="#0078D4"/>
    </linearGradient>
    <linearGradient id="paint35_linear" x1="291.354" y1="74.1994" x2="213.232" y2="-15.8004" gradientUnits="userSpaceOnUse">
      <stop stop-color="#4DC1EA"/>
      <stop offset="0.585" stop-color="#0078D4"/>
    </linearGradient>
    <linearGradient id="paint36_linear" x1="254.028" y1="106.599" x2="175.907" y2="16.5989" gradientUnits="userSpaceOnUse">
      <stop stop-color="#4DC1EA"/>
      <stop offset="0.585" stop-color="#0078D4"/>
    </linearGradient>
    <linearGradient id="paint37_linear" x1="256.152" y1="104.756" x2="178.03" y2="14.7556" gradientUnits="userSpaceOnUse">
      <stop stop-color="#4DC1EA"/>
      <stop offset="0.585" stop-color="#0078D4"/>
    </linearGradient>
    <linearGradient id="paint38_linear" x1="282.558" y1="81.8345" x2="204.436" y2="-8.16542" gradientUnits="userSpaceOnUse">
      <stop stop-color="#4DC1EA"/>
      <stop offset="0.585" stop-color="#0078D4"/>
    </linearGradient>
    <linearGradient id="paint39_linear" x1="284.79" y1="79.8972" x2="206.668" y2="-10.1026" gradientUnits="userSpaceOnUse">
      <stop stop-color="#4DC1EA"/>
      <stop offset="0.585" stop-color="#0078D4"/>
    </linearGradient>
    <linearGradient id="paint40_linear" x1="247.386" y1="112.365" x2="169.264" y2="22.3652" gradientUnits="userSpaceOnUse">
      <stop stop-color="#4DC1EA"/>
      <stop offset="0.585" stop-color="#0078D4"/>
    </linearGradient>
    <linearGradient id="paint41_linear" x1="249.584" y1="110.457" x2="171.462" y2="20.457" gradientUnits="userSpaceOnUse">
      <stop stop-color="#4DC1EA"/>
      <stop offset="0.585" stop-color="#0078D4"/>
    </linearGradient>
    <linearGradient id="paint42_linear" x1="275.979" y1="87.5453" x2="197.856" y2="-2.45575" gradientUnits="userSpaceOnUse">
      <stop stop-color="#4DC1EA"/>
      <stop offset="0.585" stop-color="#0078D4"/>
    </linearGradient>
    <linearGradient id="paint43_linear" x1="278.18" y1="85.6344" x2="200.058" y2="-4.36546" gradientUnits="userSpaceOnUse">
      <stop stop-color="#4DC1EA"/>
      <stop offset="0.585" stop-color="#0078D4"/>
    </linearGradient>
    <linearGradient id="paint44_linear" x1="240.818" y1="118.066" x2="162.696" y2="28.0663" gradientUnits="userSpaceOnUse">
      <stop stop-color="#4DC1EA"/>
      <stop offset="0.585" stop-color="#0078D4"/>
    </linearGradient>
    <linearGradient id="paint45_linear" x1="242.988" y1="116.182" x2="164.866" y2="26.1821" gradientUnits="userSpaceOnUse">
      <stop stop-color="#4DC1EA"/>
      <stop offset="0.585" stop-color="#0078D4"/>
    </linearGradient>
    <linearGradient id="paint46_linear" x1="269.381" y1="93.2726" x2="191.259" y2="3.27262" gradientUnits="userSpaceOnUse">
      <stop stop-color="#4DC1EA"/>
      <stop offset="0.585" stop-color="#0078D4"/>
    </linearGradient>
    <linearGradient id="paint47_linear" x1="271.575" y1="91.3677" x2="193.453" y2="1.36735" gradientUnits="userSpaceOnUse">
      <stop stop-color="#4DC1EA"/>
      <stop offset="0.585" stop-color="#0078D4"/>
    </linearGradient>
    <linearGradient id="paint48_linear" x1="234.222" y1="123.792" x2="156.1" y2="33.7916" gradientUnits="userSpaceOnUse">
      <stop stop-color="#4DC1EA"/>
      <stop offset="0.585" stop-color="#0078D4"/>
    </linearGradient>
    <linearGradient id="paint49_linear" x1="236.458" y1="121.851" x2="158.336" y2="31.8513" gradientUnits="userSpaceOnUse">
      <stop stop-color="#4DC1EA"/>
      <stop offset="0.585" stop-color="#0078D4"/>
    </linearGradient>
    <linearGradient id="paint50_linear" x1="262.81" y1="98.9763" x2="184.688" y2="8.97606" gradientUnits="userSpaceOnUse">
      <stop stop-color="#4DC1EA"/>
      <stop offset="0.585" stop-color="#0078D4"/>
    </linearGradient>
    <linearGradient id="paint51_linear" x1="265.029" y1="97.0503" x2="186.907" y2="7.05004" gradientUnits="userSpaceOnUse">
      <stop stop-color="#4DC1EA"/>
      <stop offset="0.585" stop-color="#0078D4"/>
    </linearGradient>
    <linearGradient id="paint52_linear" x1="227.651" y1="129.496" x2="149.529" y2="39.4954" gradientUnits="userSpaceOnUse">
      <stop stop-color="#4DC1EA"/>
      <stop offset="0.585" stop-color="#0078D4"/>
    </linearGradient>
    <linearGradient id="paint53_linear" x1="229.854" y1="127.582" x2="151.732" y2="37.5824" gradientUnits="userSpaceOnUse">
      <stop stop-color="#4DC1EA"/>
      <stop offset="0.585" stop-color="#0078D4"/>
    </linearGradient>
    <linearGradient id="paint54_linear" x1="256.23" y1="104.688" x2="178.108" y2="14.6878" gradientUnits="userSpaceOnUse">
      <stop stop-color="#4DC1EA"/>
      <stop offset="0.585" stop-color="#0078D4"/>
    </linearGradient>
    <linearGradient id="paint55_linear" x1="258.37" y1="102.83" x2="180.248" y2="12.8302" gradientUnits="userSpaceOnUse">
      <stop stop-color="#4DC1EA"/>
      <stop offset="0.585" stop-color="#0078D4"/>
    </linearGradient>
    <linearGradient id="paint56_linear" x1="221.046" y1="135.228" x2="142.925" y2="45.2277" gradientUnits="userSpaceOnUse">
      <stop stop-color="#4DC1EA"/>
      <stop offset="0.585" stop-color="#0078D4"/>
    </linearGradient>
    <linearGradient id="paint57_linear" x1="223.26" y1="133.307" x2="145.138" y2="43.3064" gradientUnits="userSpaceOnUse">
      <stop stop-color="#4DC1EA"/>
      <stop offset="0.585" stop-color="#0078D4"/>
    </linearGradient>
    <linearGradient id="paint58_linear" x1="249.659" y1="110.392" x2="171.537" y2="20.392" gradientUnits="userSpaceOnUse">
      <stop stop-color="#4DC1EA"/>
      <stop offset="0.585" stop-color="#0078D4"/>
    </linearGradient>
    <linearGradient id="paint59_linear" x1="251.815" y1="108.52" x2="173.694" y2="18.52" gradientUnits="userSpaceOnUse">
      <stop stop-color="#4DC1EA"/>
      <stop offset="0.585" stop-color="#0078D4"/>
    </linearGradient>
    <linearGradient id="paint60_linear" x1="214.481" y1="140.926" x2="136.36" y2="50.9262" gradientUnits="userSpaceOnUse">
      <stop stop-color="#4DC1EA"/>
      <stop offset="0.585" stop-color="#0078D4"/>
    </linearGradient>
    <linearGradient id="paint61_linear" x1="216.668" y1="139.029" x2="138.546" y2="49.0288" gradientUnits="userSpaceOnUse">
      <stop stop-color="#4DC1EA"/>
      <stop offset="0.585" stop-color="#0078D4"/>
    </linearGradient>
    <linearGradient id="paint62_linear" x1="218.866" y1="137.121" x2="140.744" y2="47.1205" gradientUnits="userSpaceOnUse">
      <stop stop-color="#4DC1EA"/>
      <stop offset="0.585" stop-color="#0078D4"/>
    </linearGradient>
    <linearGradient id="paint63_linear" x1="243.055" y1="116.124" x2="164.933" y2="26.1244" gradientUnits="userSpaceOnUse">
      <stop stop-color="#4DC1EA"/>
      <stop offset="0.585" stop-color="#0078D4"/>
    </linearGradient>
    <linearGradient id="paint64_linear" x1="245.249" y1="114.22" x2="167.127" y2="24.2197" gradientUnits="userSpaceOnUse">
      <stop stop-color="#4DC1EA"/>
      <stop offset="0.585" stop-color="#0078D4"/>
    </linearGradient>
    <linearGradient id="paint65_linear" x1="207.844" y1="146.687" x2="129.722" y2="56.6875" gradientUnits="userSpaceOnUse">
      <stop stop-color="#4DC1EA"/>
      <stop offset="0.585" stop-color="#0078D4"/>
    </linearGradient>
    <linearGradient id="paint66_linear" x1="210.099" y1="144.73" x2="131.977" y2="54.7299" gradientUnits="userSpaceOnUse">
      <stop stop-color="#4DC1EA"/>
      <stop offset="0.585" stop-color="#0078D4"/>
    </linearGradient>
    <linearGradient id="paint67_linear" x1="236.457" y1="121.851" x2="158.335" y2="31.8508" gradientUnits="userSpaceOnUse">
      <stop stop-color="#4DC1EA"/>
      <stop offset="0.585" stop-color="#0078D4"/>
    </linearGradient>
    <linearGradient id="paint68_linear" x1="238.652" y1="119.947" x2="160.53" y2="29.9468" gradientUnits="userSpaceOnUse">
      <stop stop-color="#4DC1EA"/>
      <stop offset="0.585" stop-color="#0078D4"/>
    </linearGradient>
    <linearGradient id="paint69_linear" x1="201.289" y1="152.378" x2="123.167" y2="62.3779" gradientUnits="userSpaceOnUse">
      <stop stop-color="#4DC1EA"/>
      <stop offset="0.585" stop-color="#0078D4"/>
    </linearGradient>
    <linearGradient id="paint70_linear" x1="203.502" y1="150.457" x2="125.38" y2="60.4567" gradientUnits="userSpaceOnUse">
      <stop stop-color="#4DC1EA"/>
      <stop offset="0.585" stop-color="#0078D4"/>
    </linearGradient>
    <linearGradient id="paint71_linear" x1="229.852" y1="127.584" x2="151.73" y2="37.5839" gradientUnits="userSpaceOnUse">
      <stop stop-color="#4DC1EA"/>
      <stop offset="0.585" stop-color="#0078D4"/>
    </linearGradient>
    <linearGradient id="paint72_linear" x1="232.045" y1="125.681" x2="153.923" y2="35.6812" gradientUnits="userSpaceOnUse">
      <stop stop-color="#4DC1EA"/>
      <stop offset="0.585" stop-color="#0078D4"/>
    </linearGradient>
    <linearGradient id="paint73_linear" x1="194.688" y1="158.107" x2="116.566" y2="68.1073" gradientUnits="userSpaceOnUse">
      <stop stop-color="#4DC1EA"/>
      <stop offset="0.585" stop-color="#0078D4"/>
    </linearGradient>
    <linearGradient id="paint74_linear" x1="196.933" y1="156.159" x2="118.811" y2="66.1591" gradientUnits="userSpaceOnUse">
      <stop stop-color="#4DC1EA"/>
      <stop offset="0.585" stop-color="#0078D4"/>
    </linearGradient>
    <linearGradient id="paint75_linear" x1="223.284" y1="133.286" x2="145.162" y2="43.2855" gradientUnits="userSpaceOnUse">
      <stop stop-color="#4DC1EA"/>
      <stop offset="0.585" stop-color="#0078D4"/>
    </linearGradient>
    <linearGradient id="paint76_linear" x1="225.478" y1="131.381" x2="147.356" y2="41.3811" gradientUnits="userSpaceOnUse">
      <stop stop-color="#4DC1EA"/>
      <stop offset="0.585" stop-color="#0078D4"/>
    </linearGradient>
    <linearGradient id="paint77_linear" x1="188.123" y1="163.806" x2="110.001" y2="73.8058" gradientUnits="userSpaceOnUse">
      <stop stop-color="#4DC1EA"/>
      <stop offset="0.585" stop-color="#0078D4"/>
    </linearGradient>
    <linearGradient id="paint78_linear" x1="190.29" y1="161.925" x2="112.168" y2="71.9249" gradientUnits="userSpaceOnUse">
      <stop stop-color="#4DC1EA"/>
      <stop offset="0.585" stop-color="#0078D4"/>
    </linearGradient>
    <linearGradient id="paint79_linear" x1="216.687" y1="139.012" x2="138.565" y2="49.0118" gradientUnits="userSpaceOnUse">
      <stop stop-color="#4DC1EA"/>
      <stop offset="0.585" stop-color="#0078D4"/>
    </linearGradient>
    <linearGradient id="paint80_linear" x1="218.871" y1="137.116" x2="140.749" y2="47.1158" gradientUnits="userSpaceOnUse">
      <stop stop-color="#4DC1EA"/>
      <stop offset="0.585" stop-color="#0078D4"/>
    </linearGradient>
    <linearGradient id="paint81_linear" x1="181.511" y1="169.546" x2="103.389" y2="79.5456" gradientUnits="userSpaceOnUse">
      <stop stop-color="#4DC1EA"/>
      <stop offset="0.585" stop-color="#0078D4"/>
    </linearGradient>
    <linearGradient id="paint82_linear" x1="183.722" y1="167.626" x2="105.6" y2="77.6263" gradientUnits="userSpaceOnUse">
      <stop stop-color="#4DC1EA"/>
      <stop offset="0.585" stop-color="#0078D4"/>
    </linearGradient>
    <linearGradient id="paint83_linear" x1="185.937" y1="165.704" x2="107.815" y2="75.7038" gradientUnits="userSpaceOnUse">
      <stop stop-color="#4DC1EA"/>
      <stop offset="0.585" stop-color="#0078D4"/>
    </linearGradient>
    <linearGradient id="paint84_linear" x1="188.145" y1="163.787" x2="110.023" y2="73.7869" gradientUnits="userSpaceOnUse">
      <stop stop-color="#4DC1EA"/>
      <stop offset="0.585" stop-color="#0078D4"/>
    </linearGradient>
    <linearGradient id="paint85_linear" x1="190.32" y1="161.899" x2="112.198" y2="71.8992" gradientUnits="userSpaceOnUse">
      <stop stop-color="#4DC1EA"/>
      <stop offset="0.585" stop-color="#0078D4"/>
    </linearGradient>
    <linearGradient id="paint86_linear" x1="192.524" y1="159.986" x2="114.402" y2="69.986" gradientUnits="userSpaceOnUse">
      <stop stop-color="#4DC1EA"/>
      <stop offset="0.585" stop-color="#0078D4"/>
    </linearGradient>
    <linearGradient id="paint87_linear" x1="194.695" y1="158.102" x2="116.573" y2="68.1018" gradientUnits="userSpaceOnUse">
      <stop stop-color="#4DC1EA"/>
      <stop offset="0.585" stop-color="#0078D4"/>
    </linearGradient>
    <linearGradient id="paint88_linear" x1="196.934" y1="156.158" x2="118.812" y2="66.1579" gradientUnits="userSpaceOnUse">
      <stop stop-color="#4DC1EA"/>
      <stop offset="0.585" stop-color="#0078D4"/>
    </linearGradient>
    <linearGradient id="paint89_linear" x1="199.109" y1="154.27" x2="120.988" y2="64.2699" gradientUnits="userSpaceOnUse">
      <stop stop-color="#4DC1EA"/>
      <stop offset="0.585" stop-color="#0078D4"/>
    </linearGradient>
    <linearGradient id="paint90_linear" x1="201.372" y1="152.306" x2="123.25" y2="62.3054" gradientUnits="userSpaceOnUse">
      <stop stop-color="#4DC1EA"/>
      <stop offset="0.585" stop-color="#0078D4"/>
    </linearGradient>
    <linearGradient id="paint91_linear" x1="203.496" y1="150.462" x2="125.374" y2="60.4616" gradientUnits="userSpaceOnUse">
      <stop stop-color="#4DC1EA"/>
      <stop offset="0.585" stop-color="#0078D4"/>
    </linearGradient>
    <linearGradient id="paint92_linear" x1="205.695" y1="148.554" x2="127.572" y2="58.5536" gradientUnits="userSpaceOnUse">
      <stop stop-color="#4DC1EA"/>
      <stop offset="0.585" stop-color="#0078D4"/>
    </linearGradient>
    <linearGradient id="paint93_linear" x1="207.92" y1="146.622" x2="129.798" y2="56.6217" gradientUnits="userSpaceOnUse">
      <stop stop-color="#4DC1EA"/>
      <stop offset="0.585" stop-color="#0078D4"/>
    </linearGradient>
    <linearGradient id="paint94_linear" x1="210.117" y1="144.715" x2="131.995" y2="54.7146" gradientUnits="userSpaceOnUse">
      <stop stop-color="#4DC1EA"/>
      <stop offset="0.585" stop-color="#0078D4"/>
    </linearGradient>
    <linearGradient id="paint95_linear" x1="212.274" y1="142.843" x2="134.152" y2="52.8428" gradientUnits="userSpaceOnUse">
      <stop stop-color="#4DC1EA"/>
      <stop offset="0.585" stop-color="#0078D4"/>
    </linearGradient>
    <linearGradient id="paint96_linear" x1="174.98" y1="175.214" x2="96.8584" y2="85.2141" gradientUnits="userSpaceOnUse">
      <stop stop-color="#4DC1EA"/>
      <stop offset="0.585" stop-color="#0078D4"/>
    </linearGradient>
    <linearGradient id="paint97_linear" x1="177.159" y1="173.323" x2="99.0365" y2="83.3233" gradientUnits="userSpaceOnUse">
      <stop stop-color="#4DC1EA"/>
      <stop offset="0.585" stop-color="#0078D4"/>
    </linearGradient>
    <linearGradient id="paint98_linear" x1="179.309" y1="171.456" x2="101.187" y2="81.4564" gradientUnits="userSpaceOnUse">
      <stop stop-color="#4DC1EA"/>
      <stop offset="0.585" stop-color="#0078D4"/>
    </linearGradient>
    <linearGradient id="paint99_linear" x1="181.494" y1="169.56" x2="103.372" y2="79.5605" gradientUnits="userSpaceOnUse">
      <stop stop-color="#4DC1EA"/>
      <stop offset="0.585" stop-color="#0078D4"/>
    </linearGradient>
    <linearGradient id="paint100_linear" x1="183.733" y1="167.617" x2="105.611" y2="77.6167" gradientUnits="userSpaceOnUse">
      <stop stop-color="#4DC1EA"/>
      <stop offset="0.585" stop-color="#0078D4"/>
    </linearGradient>
    <linearGradient id="paint101_linear" x1="185.961" y1="165.683" x2="107.839" y2="75.6828" gradientUnits="userSpaceOnUse">
      <stop stop-color="#4DC1EA"/>
      <stop offset="0.585" stop-color="#0078D4"/>
    </linearGradient>
    <linearGradient id="paint102_linear" x1="188.12" y1="163.808" x2="109.998" y2="73.8083" gradientUnits="userSpaceOnUse">
      <stop stop-color="#4DC1EA"/>
      <stop offset="0.585" stop-color="#0078D4"/>
    </linearGradient>
    <linearGradient id="paint103_linear" x1="190.28" y1="161.934" x2="112.158" y2="71.9337" gradientUnits="userSpaceOnUse">
      <stop stop-color="#4DC1EA"/>
      <stop offset="0.585" stop-color="#0078D4"/>
    </linearGradient>
    <linearGradient id="paint104_linear" x1="192.537" y1="159.975" x2="114.415" y2="69.9748" gradientUnits="userSpaceOnUse">
      <stop stop-color="#4DC1EA"/>
      <stop offset="0.585" stop-color="#0078D4"/>
    </linearGradient>
    <linearGradient id="paint105_linear" x1="194.721" y1="158.079" x2="116.6" y2="68.0786" gradientUnits="userSpaceOnUse">
      <stop stop-color="#4DC1EA"/>
      <stop offset="0.585" stop-color="#0078D4"/>
    </linearGradient>
    <linearGradient id="paint106_linear" x1="196.922" y1="156.168" x2="118.801" y2="66.1681" gradientUnits="userSpaceOnUse">
      <stop stop-color="#4DC1EA"/>
      <stop offset="0.585" stop-color="#0078D4"/>
    </linearGradient>
    <linearGradient id="paint107_linear" x1="199.122" y1="154.259" x2="121.001" y2="64.2585" gradientUnits="userSpaceOnUse">
      <stop stop-color="#4DC1EA"/>
      <stop offset="0.585" stop-color="#0078D4"/>
    </linearGradient>
    <linearGradient id="paint108_linear" x1="201.329" y1="152.343" x2="123.207" y2="62.343" gradientUnits="userSpaceOnUse">
      <stop stop-color="#4DC1EA"/>
      <stop offset="0.585" stop-color="#0078D4"/>
    </linearGradient>
    <linearGradient id="paint109_linear" x1="203.508" y1="150.452" x2="125.386" y2="60.4519" gradientUnits="userSpaceOnUse">
      <stop stop-color="#4DC1EA"/>
      <stop offset="0.585" stop-color="#0078D4"/>
    </linearGradient>
    <linearGradient id="paint110_linear" x1="205.719" y1="148.533" x2="127.596" y2="58.5324" gradientUnits="userSpaceOnUse">
      <stop stop-color="#4DC1EA"/>
      <stop offset="0.585" stop-color="#0078D4"/>
    </linearGradient>
    <linearGradient id="paint111_linear" x1="204.606" y1="-13.8325" x2="206.215" y2="112.48" gradientUnits="userSpaceOnUse">
      <stop offset="0.2804" stop-color="white" stop-opacity="0"/>
      <stop offset="0.7024" stop-color="white" stop-opacity="0.4301"/>
      <stop offset="0.8165" stop-color="white" stop-opacity="0.5"/>
      <stop offset="0.9993" stop-color="white"/>
    </linearGradient>
  </defs>
</svg>
