<svg width="407" height="190" viewBox="0 0 407 190" fill="none" xmlns="http://www.w3.org/2000/svg">
  <path d="M257.553 30.4584L251.955 27.3753L257.553 24.3733L263.152 27.3753L257.553 30.4584Z" fill="#50E6FF" fill-opacity="0.6" stroke="#50E6FF" stroke-width="0.4988" stroke-linejoin="round"/>
  <path d="M251.955 27.4563L252.036 33.4603L257.634 36.4623L257.553 30.4583L251.955 27.4563Z" fill="#50E6FF" fill-opacity="0.3" stroke="#50E6FF" stroke-width="0.4988" stroke-linejoin="round"/>
  <path d="M257.553 30.4583L257.634 36.4623L263.152 33.4603V27.4563L257.553 30.4583Z" fill="#50E6FF" fill-opacity="0.5" stroke="#50E6FF" stroke-width="0.4988" stroke-linejoin="round"/>
  <path opacity="0.35" d="M115.08 117.598L188.589 74.1902C190.292 73.2166 192.402 73.2166 194.106 74.1902L266.884 117.273C268.507 118.247 268.507 120.519 266.884 121.411L194.268 163.845C192.483 164.9 190.211 164.9 188.426 163.845L115.08 121.736C113.457 120.843 113.457 118.49 115.08 117.598Z" stroke="url(#paint0_linear)" stroke-width="0.2" stroke-miterlimit="10" stroke-linejoin="round"/>
  <path opacity="0.35" d="M193.619 78.5716L260.88 117.517C262.178 118.247 262.178 120.194 260.88 120.924L193.619 159.95C192.24 160.762 190.455 160.762 189.075 159.95L121.327 121.168C120.11 120.519 120.11 118.815 121.327 118.085L189.075 78.4904C190.455 77.7602 192.159 77.7602 193.619 78.5716Z" stroke="url(#paint1_linear)" stroke-width="0.31" stroke-miterlimit="10" stroke-linejoin="round"/>
  <path opacity="0.35" d="M192.645 82.3849L254.146 117.922C255.363 118.571 255.363 120.275 254.146 121.005L192.726 156.462C191.834 156.948 190.779 156.948 189.887 156.462L128.386 121.168C127.331 120.6 127.331 119.058 128.386 118.409L189.968 82.3849C190.779 81.8981 191.834 81.8981 192.645 82.3849Z" stroke="url(#paint2_linear)" stroke-width="0.42" stroke-miterlimit="10" stroke-linejoin="round"/>
  <path opacity="0.4" d="M192.564 86.3605L246.276 118.084C247.331 118.734 247.331 120.194 246.276 120.843L192.483 152.729C191.834 153.135 190.942 153.135 190.293 152.729L135.851 121.168C134.796 120.518 134.796 119.058 135.851 118.409L190.13 86.4416C190.86 85.9548 191.753 85.9548 192.564 86.3605Z" stroke="url(#paint3_linear)" stroke-width="0.53" stroke-miterlimit="10" stroke-linejoin="round"/>
  <path opacity="0.5" d="M192.158 90.3363L238.649 118.815C239.46 119.302 239.46 120.438 238.649 120.924L191.834 148.429C191.509 148.673 191.022 148.673 190.698 148.429L142.99 120.762C142.179 120.275 142.179 119.139 142.99 118.653L190.373 90.3363C191.022 90.0118 191.671 90.0118 192.158 90.3363Z" stroke="url(#paint4_linear)" stroke-width="0.64" stroke-miterlimit="10" stroke-linejoin="round"/>
  <path opacity="0.6" d="M149.806 118.815L189.238 95.4478C190.536 94.7176 192.078 94.7176 193.376 95.4478L231.834 118.896C232.483 119.302 232.483 120.275 231.834 120.681L191.996 143.886C191.591 144.129 191.104 144.129 190.698 143.886L149.887 120.6C149.157 120.275 149.157 119.302 149.806 118.815Z" stroke="url(#paint5_linear)" stroke-width="0.75" stroke-miterlimit="10" stroke-linejoin="round"/>
  <path d="M217.554 34.8392L185.992 60.2346" stroke="#0078D4" stroke-width="0.5" stroke-miterlimit="10"/>
  <path d="M166.276 93.0949L145.749 78.4905L177.392 80.1132" stroke="#0078D4" stroke-width="0.5" stroke-miterlimit="10"/>
  <path d="M201.165 86.5226L217.311 62.831L185.668 60.397L201.165 86.5226Z" stroke="#0078D4" stroke-miterlimit="10"/>
  <path d="M167.818 93.5005L201.57 86.1984L177.798 79.9509L167.818 93.5005Z" stroke="#0078D4" stroke-miterlimit="10"/>
  <path d="M203.436 86.6039C203.517 85.468 202.625 84.4943 201.489 84.4132C200.353 84.3321 199.379 85.2246 199.298 86.3605C199.217 87.4964 200.109 88.47 201.245 88.5511C202.3 88.7134 203.355 87.8209 203.436 86.6039Z" fill="#0078D4"/>
  <path d="M179.988 80.3565C180.069 79.2206 179.177 78.247 178.041 78.1659C176.905 78.0848 175.931 78.9772 175.85 80.1131C175.769 81.249 176.661 82.2227 177.797 82.3038C178.852 82.3849 179.907 81.4924 179.988 80.3565Z" fill="#0078D4"/>
  <path d="M169.765 93.5818C169.846 92.4459 168.954 91.4722 167.818 91.3911C166.682 91.31 165.708 92.2025 165.627 93.3384C165.546 94.4743 166.438 95.4479 167.574 95.529C168.71 95.6102 169.684 94.7988 169.765 93.5818Z" fill="#0078D4"/>
  <path d="M196.702 41.1679C196.783 40.0321 195.891 39.0584 194.755 38.9773C193.619 38.8962 192.645 39.7886 192.564 40.9245C192.483 42.0604 193.375 43.0341 194.511 43.1152C195.728 43.1963 196.621 42.3038 196.702 41.1679Z" fill="#50E6FF"/>
  <path d="M223.395 48.7136C223.477 47.5777 222.584 46.6041 221.448 46.5229C220.312 46.4418 219.339 47.3343 219.258 48.4702C219.176 49.6061 220.069 50.5797 221.205 50.6609C222.178 50.9854 223.314 49.9306 223.395 48.7136Z" fill="#0078D4"/>
  <path d="M219.258 62.7504C219.339 61.6145 218.446 60.6408 217.311 60.5597C216.175 60.4786 215.201 61.371 215.12 62.5069C215.039 63.6428 215.931 64.6165 217.067 64.6976C218.203 64.7787 219.258 63.8862 219.258 62.7504Z" fill="#0078D4"/>
  <path d="M188.02 60.8839C188.102 59.748 187.209 58.7744 186.073 58.6932C184.937 58.6121 183.964 59.5046 183.883 60.6405C183.801 61.7764 184.694 62.75 185.83 62.8311C187.047 62.9123 188.02 62.1009 188.02 60.8839Z" fill="#0078D4"/>
  <path d="M147.859 78.6527C147.94 77.5168 147.047 76.5432 145.911 76.462C144.775 76.3809 143.802 77.2734 143.721 78.4093C143.64 79.5452 144.532 80.5188 145.668 80.5999C146.723 80.5999 147.777 79.7886 147.859 78.6527Z" fill="#0078D4"/>
  <path d="M221.367 47.9832L250.819 47.3341L217.391 62.831L221.448 48.7945L217.554 34.8392" stroke="#0078D4" stroke-width="0.5" stroke-miterlimit="10"/>
  <path d="M252.929 47.6588C252.929 46.6041 252.199 45.7927 251.063 45.6304C249.846 45.4682 248.71 46.5229 248.71 47.74C248.71 48.7947 249.44 49.6061 250.576 49.7684C251.793 50.0118 252.929 48.957 252.929 47.6588Z" fill="#185A97"/>
  <path d="M235.972 33.0544C236.053 31.9185 235.16 30.9449 234.024 30.8638C232.888 30.7826 231.915 31.6751 231.834 32.811C231.753 33.9469 232.645 34.9205 233.781 35.0017C235.079 35.0828 235.972 34.1903 235.972 33.0544Z" fill="#185A97"/>
  <path d="M246.6 9.11961C246.681 7.98371 245.789 7.01009 244.653 6.92895C243.517 6.84782 242.544 7.74031 242.462 8.8762C242.381 10.0121 243.274 10.9857 244.41 11.0669C245.383 11.148 246.519 10.3366 246.6 9.11961Z" fill="#2195DC"/>
  <path d="M219.501 34.6772C219.582 33.5413 218.69 32.5677 217.554 32.4866C216.418 32.4054 215.444 33.2979 215.363 34.4338C215.282 35.5697 216.174 36.5433 217.31 36.6245C218.608 36.7056 219.501 35.6509 219.501 34.6772Z" fill="#2195DC"/>
  <path d="M184.45 115.488L189.318 112.649L196.458 116.787L191.59 119.545L184.45 115.488Z" fill="#505659"/>
  <path d="M191.59 119.545L196.458 116.786V119.464L191.59 122.304V119.545Z" fill="#505659"/>
  <path d="M174.389 105.914L179.258 103.075L206.6 118.815L201.732 121.655L174.389 105.914Z" fill="#454C50"/>
  <path d="M174.552 58.7747L179.42 55.9349L179.258 103.075L174.389 105.914L174.552 58.7747Z" fill="#454C50"/>
  <path d="M174.552 58.7747L179.42 55.9349L206.682 71.6752L201.814 74.5149L174.552 58.7747Z" fill="white"/>
  <path d="M191.915 57.9635C191.915 58.6937 192.402 59.6673 193.051 59.9919C191.428 60.9655 189.805 61.858 188.183 62.8316C187.533 62.4259 187.047 61.5335 187.047 60.8032C188.669 59.9108 190.292 58.9371 191.915 57.9635Z" fill="#454C50"/>
  <path d="M192.239 57.233C191.996 57.3953 191.915 57.6387 191.915 57.9633C190.292 58.9369 188.669 59.8294 187.047 60.803C187.047 60.3973 187.209 60.1539 187.371 60.0728C188.832 59.2614 190.779 58.1255 192.239 57.233Z" fill="#454C50"/>
  <path d="M193.051 60.0728C193.375 60.235 193.7 60.3162 193.862 60.1539L188.994 62.9936C188.751 63.1559 188.507 63.0748 188.183 62.9125C189.805 61.9389 191.428 60.9652 193.051 60.0728Z" fill="#454C50"/>
  <path d="M187.371 60.073L192.239 57.2332C192.483 57.071 192.726 57.1521 193.051 57.3144L188.182 60.1541C187.858 59.9918 187.533 59.9918 187.371 60.073Z" fill="#505659"/>
  <path d="M188.183 60.1541C188.832 60.5598 189.4 61.4523 189.4 62.1825C189.4 62.9127 188.832 63.2373 188.183 62.8316C187.533 62.4259 187.047 61.5334 187.047 60.8032C187.047 60.073 187.533 59.7485 188.183 60.1541Z" fill="#F4F4F4"/>
  <path d="M193.862 60.1542L188.994 62.994C189.237 62.8317 189.318 62.5883 189.318 62.2638C189.318 61.5335 188.831 60.641 188.101 60.2354L192.969 57.3956C193.618 57.8013 194.186 58.6938 194.186 59.424C194.267 59.7486 194.105 59.992 193.862 60.1542Z" fill="#505659"/>
  <path d="M201.813 74.5152L206.681 71.6754L206.6 118.815L201.732 121.655L201.813 74.5152Z" fill="white"/>
  <path d="M200.109 63.2373C202.381 64.5355 204.166 67.6997 204.166 70.2961L204.004 128.47C204.004 131.066 202.138 132.121 199.947 130.823L174.065 115.894C172.929 115.245 172.037 113.704 172.037 112.405L172.199 51.8783C172.199 49.282 174.065 48.2272 176.337 49.5254L200.109 63.2373ZM201.732 121.655L201.894 74.5151L174.552 58.7748L174.39 105.915L201.732 121.655ZM188.183 60.1541C187.533 59.7485 186.966 60.073 186.966 60.8032C186.966 61.5334 187.452 62.5071 188.101 62.8316C188.751 63.2373 189.318 62.9127 189.318 62.1825C189.4 61.4523 188.832 60.5598 188.183 60.1541Z" fill="#78787D"/>
  <path d="M201.813 74.5149L201.732 121.655L174.389 105.914L174.552 58.7747L201.813 74.5149Z" fill="#F4F4F4"/>
  <path d="M204.978 60.3974L181.205 46.6855C180.069 46.0364 179.015 45.9553 178.284 46.4421L173.416 49.2818C174.146 48.8762 175.201 48.8762 176.337 49.5252L200.11 63.2371C202.382 64.5353 204.167 67.6996 204.167 70.2959L204.004 128.47C204.004 129.768 203.517 130.661 202.787 131.066L207.655 128.227C208.386 127.821 208.872 126.928 208.872 125.63L209.035 67.4562C209.035 64.941 207.169 61.7767 204.978 60.3974Z" fill="#505055"/>
  <path d="M186.641 115.488C187.94 116.218 188.994 118.003 188.994 119.464C188.994 120.924 187.94 121.573 186.641 120.762C185.343 120.032 184.37 118.247 184.37 116.786C184.288 115.326 185.343 114.758 186.641 115.488Z" fill="#F4F4F4"/>
  <path d="M241.41 118.168C240.816 117.838 240.816 117.244 241.41 116.848C242.004 116.518 242.994 116.518 243.654 116.848C244.248 117.178 244.248 117.772 243.654 118.168C243.06 118.564 242.07 118.564 241.41 118.168Z" fill="url(#paint6_linear)"/>
  <path d="M250.387 119.884C249.793 119.554 249.793 118.96 250.387 118.564C250.981 118.234 251.971 118.234 252.632 118.564C253.226 118.894 253.226 119.488 252.632 119.884C252.037 120.28 251.047 120.28 250.387 119.884Z" fill="url(#paint7_linear)"/>
  <path d="M247.417 118.168C246.823 117.838 246.823 117.244 247.417 116.848C248.012 116.518 249.002 116.518 249.662 116.848C250.256 117.178 250.256 117.772 249.662 118.168C249.068 118.564 248.078 118.564 247.417 118.168Z" fill="url(#paint8_linear)"/>
  <path d="M244.446 119.95C243.852 119.62 243.852 119.026 244.446 118.63C245.04 118.234 246.031 118.3 246.691 118.63C247.285 118.96 247.285 119.554 246.691 119.95C246.031 120.28 245.04 120.28 244.446 119.95Z" fill="url(#paint9_linear)"/>
  <path d="M241.41 121.667C240.816 121.337 240.816 120.742 241.41 120.346C242.004 120.016 242.994 120.016 243.654 120.346C244.248 120.676 244.248 121.271 243.654 121.667C243.06 121.997 242.07 121.997 241.41 121.667Z" fill="url(#paint10_linear)"/>
  <path d="M238.44 119.95C237.846 119.62 237.846 119.026 238.44 118.63C239.034 118.3 240.024 118.3 240.684 118.63C241.278 118.96 241.278 119.554 240.684 119.95C240.09 120.28 239.034 120.28 238.44 119.95Z" fill="url(#paint11_linear)"/>
  <path d="M244.446 116.452C243.852 116.122 243.852 115.528 244.446 115.132C245.04 114.802 246.031 114.802 246.691 115.132C247.285 115.462 247.285 116.056 246.691 116.452C246.031 116.782 245.04 116.782 244.446 116.452Z" fill="url(#paint12_linear)"/>
  <path d="M244.446 123.383C243.852 123.053 243.852 122.459 244.446 122.063C245.04 121.733 246.031 121.733 246.691 122.063C247.285 122.393 247.285 122.987 246.691 123.383C246.031 123.713 245.04 123.713 244.446 123.383Z" fill="url(#paint13_linear)"/>
  <path d="M247.417 121.666C246.823 121.336 246.823 120.742 247.417 120.346C248.012 119.95 249.002 120.016 249.662 120.346C250.256 120.676 250.256 121.27 249.662 121.666C249.002 121.996 248.012 121.996 247.417 121.666Z" fill="url(#paint14_linear)"/>
  <path d="M228.669 73.7848L234.268 71.3507L233.619 77.517L228.669 73.7848Z" fill="#0065C0"/>
  <path d="M234.268 71.3507L233.619 77.517L238.162 74.8395L234.268 71.3507Z" fill="#156AB2"/>
  <path d="M234.268 71.3505L238.162 74.8394L238.73 70.0524L234.268 71.3505Z" fill="#0065C0"/>
  <path d="M234.105 66.6447L234.268 71.3505L238.73 70.0523L234.105 66.6447Z" fill="#0078D3"/>
  <path d="M234.106 66.6447L229.805 68.673L234.268 71.3505L234.106 66.6447Z" fill="#0389DC"/>
  <path d="M229.805 68.6731L234.268 71.3506L228.669 73.7846L229.805 68.6731Z" fill="#0078D3"/>
  <path d="M228.669 73.7847L233.619 77.5169L228.751 78.9773L228.669 73.7847Z" fill="#005F9F"/>
  <path d="M233.619 77.5169L238.162 74.8395L237.757 79.4642L233.619 77.5169Z" fill="#185A96"/>
  <path d="M233.618 77.5167L232.564 81.7358L237.756 79.464L233.618 77.5167Z" fill="#1D4A79"/>
  <path d="M233.619 77.5167L228.75 78.9772L232.564 81.7358L233.619 77.5167Z" fill="#185A96"/>
  <path d="M238.162 74.8395L237.756 79.4642L240.758 75.0018L238.162 74.8395Z" fill="#1D4A79"/>
  <path d="M238.73 70.0524L238.162 74.8394L240.758 75.0016L238.73 70.0524Z" fill="#156AB2"/>
  <path d="M228.913 66.3202L229.805 68.6731L234.105 66.6447L228.913 66.3202Z" fill="#45CAF2"/>
  <path d="M228.913 66.3202L229.806 68.6731L225.505 70.4581L228.913 66.3202Z" fill="#50E6FF"/>
  <path d="M229.806 68.6731L225.505 70.4581L228.67 73.7846L229.806 68.6731Z" fill="#2195DC"/>
  <path d="M237.432 66.9692L234.105 66.6447L238.73 70.0523L237.432 66.9692Z" fill="#2194DB"/>
  <path d="M225.505 70.458L224.937 76.2186L228.669 73.7846L225.505 70.458Z" fill="#0078D3"/>
  <path d="M228.669 73.7847L224.937 76.2187L228.75 78.9773L228.669 73.7847Z" fill="#0065C0"/>
  <path d="M224.937 76.2186L227.371 80.8433L228.75 78.9772L224.937 76.2186Z" fill="#185A96"/>
  <path d="M228.75 78.9774L227.371 80.8435L232.564 81.736L228.75 78.9774Z" fill="#1D4A79"/>
  <path d="M225.505 70.458L223.72 73.0543L224.937 76.2186L225.505 70.458Z" fill="#0389DC"/>
  <path d="M225.424 68.9165L225.505 70.4581L228.913 66.3202L225.424 68.9165Z" fill="#D5F9FD"/>
  <path d="M225.424 68.9165L225.505 70.4581L223.72 73.0544L225.424 68.9165Z" fill="#50E6FF"/>
  <path d="M233.213 65.4277L228.913 66.3202L234.105 66.6448L233.213 65.4277Z" fill="#D5F9FD"/>
  <path d="M233.213 65.4277L234.106 66.6448L237.432 66.9693L233.213 65.4277Z" fill="#50E6FF"/>
  <path d="M237.432 66.9692L238.73 70.0524L240.191 70.4581L237.432 66.9692Z" fill="#32AFE6"/>
  <path d="M238.73 70.0524L240.758 75.0016L240.19 70.458L238.73 70.0524Z" fill="#0078D3"/>
  <path d="M240.758 75.0017L237.756 79.4642L239.217 78.9773L240.758 75.0017Z" fill="#1D4A79"/>
  <path d="M237.756 79.4642L232.564 81.736L235.809 81.8983L237.756 79.4642Z" fill="#243A5E"/>
  <path d="M237.757 79.4642L235.809 81.8983L239.217 78.9774L237.757 79.4642Z" fill="#243A5E"/>
  <path d="M232.564 81.7359L231.428 82.4661L227.371 80.8434L232.564 81.7359Z" fill="#243A5E"/>
  <path d="M232.564 81.7361L231.428 82.4663L235.809 81.8984L232.564 81.7361Z" fill="#1D4A79"/>
  <path d="M224.937 76.2186L224.531 77.4357L227.371 80.8433L224.937 76.2186Z" fill="#156AB2"/>
  <path d="M223.72 73.0543L224.937 76.2186L224.531 77.4356L223.72 73.0543Z" fill="#0078D3"/>
  <path d="M192.24 82.4659C192.24 84.6566 190.942 85.8736 188.994 85.2245C188.67 85.1434 188.345 84.9811 188.021 84.8189C187.372 84.4132 186.722 83.8452 186.155 83.1962C186.966 83.2773 187.696 83.3584 188.426 83.2773C188.426 83.3584 188.426 83.5207 188.507 83.683C188.67 84.1698 188.994 84.7377 189.4 84.9811L190.049 85.3868C191.266 85.3868 192.077 84.4132 192.24 82.9528L191.753 82.7094C191.915 82.6282 192.077 82.5471 192.24 82.4659Z" fill="#59B3D8"/>
  <path d="M185.099 77.4355C185.181 77.5166 185.262 77.5166 185.343 77.5977C185.911 78.0845 186.316 78.977 186.154 79.6261L186.316 79.7073C186.966 80.0318 187.452 80.9243 187.452 81.6545C187.452 82.0602 187.29 82.3036 187.047 82.3847C186.803 82.3847 186.641 82.3847 186.398 82.3036C186.316 82.3036 186.316 82.3036 186.235 82.2225L184.856 81.4111C184.369 80.5186 184.045 79.6261 183.882 78.8148C183.882 78.7336 183.882 78.7336 183.882 78.6525C183.801 78.2468 183.801 77.8411 183.801 77.5166C183.801 77.2732 183.801 77.0298 183.882 76.7864L185.099 77.4355Z" fill="#B6DEEC"/>
  <path d="M192.402 86.4417C192.483 86.4417 192.483 86.5228 192.483 86.6039C192.483 87.1719 192.889 87.821 193.376 88.1455C193.457 88.1455 193.457 88.2266 193.457 88.3078C193.457 88.3889 193.457 88.3889 193.376 88.3889C192.889 88.1455 192.483 88.3078 192.483 88.8757C192.483 88.9568 192.483 88.9568 192.402 88.9568C192.321 88.9568 192.321 88.8757 192.321 88.7946C192.321 88.2266 191.915 87.5775 191.429 87.253C191.347 87.253 191.347 87.1719 191.347 87.0907C191.347 87.0096 191.347 87.0096 191.429 87.0096C191.915 87.3341 192.321 87.0907 192.402 86.4417C192.321 86.4417 192.402 86.4417 192.402 86.4417Z" fill="#0072C5"/>
  <path d="M190.536 81.9792C190.049 82.1415 189.481 82.2226 188.994 82.3037V82.2226C188.994 81.6547 189.4 81.4112 189.968 81.6547L190.536 81.9792Z" fill="#B6DEEC"/>
  <path d="M191.753 82.7094L192.239 82.9528C192.077 84.4132 191.266 85.3057 190.049 85.3868L189.4 84.9811C188.994 84.7377 188.588 84.2509 188.507 83.683C188.507 83.5207 188.426 83.4396 188.426 83.2773C188.751 83.2773 189.075 83.1962 189.4 83.1962C190.211 83.1962 191.022 82.9528 191.753 82.7094Z" fill="#B6DEEC"/>
  <path d="M190.049 77.0299C190.13 77.111 190.211 77.1921 190.211 77.2733C190.373 77.4356 190.536 77.679 190.617 77.9224C190.941 78.4092 191.185 78.896 191.428 79.3828C191.753 80.0319 191.915 80.681 192.077 81.33V81.4112C191.915 81.4923 191.672 81.5735 191.509 81.6546L188.264 79.7885C187.615 79.3828 187.128 78.4903 187.128 77.7601C187.128 77.0299 187.615 76.7053 188.264 77.111L188.751 77.3544C188.751 77.2733 188.751 77.1921 188.751 77.111C188.751 76.6242 189.075 76.4619 189.481 76.7053L190.049 77.0299Z" fill="#B6DEEC"/>
  <path d="M185.343 77.5978C185.262 77.5167 185.18 77.4356 185.099 77.4356L183.882 76.7054C184.207 75.0826 185.424 74.2713 187.047 74.7581C187.371 74.8392 187.696 75.0015 188.02 75.1638C188.669 75.5695 189.318 76.0563 189.886 76.7054C189.967 76.8676 190.13 77.0299 190.211 77.1922C190.13 77.111 190.049 77.0299 190.049 76.9488L189.643 76.7054C189.237 76.4619 188.913 76.6242 188.913 77.111C188.913 77.1922 188.913 77.2733 188.913 77.3544L188.426 77.111C187.777 76.7054 187.29 77.0299 187.29 77.7601C187.29 78.4903 187.777 79.3828 188.426 79.7885L191.671 81.6546C191.347 81.8169 190.941 81.898 190.617 82.0603L190.049 81.7357C189.562 81.4112 189.075 81.6546 189.075 82.3037V82.3848C188.345 82.3848 187.696 82.3848 187.047 82.3848C187.29 82.3037 187.452 82.0603 187.452 81.6546C187.452 80.9244 186.965 80.113 186.316 79.7074L186.154 79.6262C186.316 78.9771 185.911 78.0847 185.343 77.5978Z" fill="#59B3D8"/>
  <path d="M191.428 78.9774C191.51 79.0586 191.51 79.2208 191.591 79.302C191.51 79.2208 191.428 79.1397 191.428 78.9774Z" fill="#59B3D8"/>
  <path d="M191.347 78.8961C191.347 78.9777 191.429 78.9777 191.429 79.0592C191.347 78.9777 191.347 78.8961 191.347 78.8961Z" fill="#59B3D8"/>
  <path d="M191.266 78.7339C191.266 78.8154 191.347 78.8154 191.347 78.897C191.266 78.8154 191.266 78.7339 191.266 78.7339Z" fill="#59B3D8"/>
  <path d="M191.266 78.7338C191.103 78.4093 190.941 78.1659 190.779 77.9225C190.941 78.1659 191.103 78.4093 191.266 78.7338Z" fill="#59B3D8"/>
  <path d="M192.727 77.679C193.457 78.0847 193.944 78.6527 194.268 79.3017C194.674 80.2754 194.349 81.1679 193.294 81.9792C192.97 82.2226 192.645 82.3849 192.321 82.5472C192.159 82.6283 191.996 82.7094 191.834 82.7906C191.104 83.034 190.292 83.2774 189.4 83.3585C189.075 83.3585 188.751 83.4396 188.426 83.4396C187.696 83.4396 186.966 83.4396 186.155 83.3585C185.262 83.2774 184.37 82.9528 183.477 82.466C182.666 81.9792 182.179 81.4113 181.936 80.8433C181.449 79.7074 182.098 78.4092 183.883 77.5979C183.883 78.0036 183.883 78.3281 183.964 78.7338C182.828 79.3829 182.341 80.1942 182.585 80.7622C182.666 81.0056 182.99 81.3301 183.396 81.5735C183.883 81.8169 184.532 82.0603 185.343 82.3038C185.749 82.3849 186.073 82.466 186.479 82.466C186.723 82.466 186.885 82.466 187.128 82.5472C187.777 82.5472 188.426 82.5472 189.075 82.466C189.643 82.3849 190.13 82.3037 190.617 82.1415C190.942 82.0603 191.347 81.8981 191.672 81.7358C191.834 81.6547 192.077 81.5735 192.24 81.4924C192.402 81.4113 192.564 81.249 192.727 81.1679C193.619 80.5188 193.781 79.8697 193.619 79.464C193.538 79.2206 193.294 78.9772 192.727 78.6527C192.321 78.4093 191.915 78.247 191.51 78.1658C191.266 78.0847 191.023 78.0036 190.779 78.0036C190.617 77.7602 190.455 77.5979 190.292 77.3545C190.211 77.1922 190.049 77.0299 189.887 76.8677C190.374 76.9488 190.779 77.0299 191.266 77.1922C191.834 77.2734 192.321 77.4356 192.727 77.679Z" fill="black"/>
  <path d="M186.317 82.2225C186.398 82.2225 186.398 82.3036 186.479 82.3036C186.155 82.3036 185.749 82.2225 185.343 82.1414C184.694 81.1677 184.207 79.9507 183.964 78.8148C184.126 79.6262 184.451 80.5187 184.937 81.4112L186.317 82.2225Z" fill="#59B3D8"/>
  <path d="M183.315 70.2146C183.396 70.2958 183.477 70.3769 183.477 70.458C183.477 71.3505 184.126 72.4864 184.937 72.9732C185.018 73.0544 185.1 73.1355 185.1 73.2166C185.1 73.2978 185.018 73.2978 184.937 73.2978C184.126 72.811 183.477 73.2167 183.477 74.1091C183.477 74.1903 183.396 74.1903 183.315 74.1903C183.233 74.1091 183.152 74.028 183.152 73.9469C183.152 73.0544 182.503 71.9185 181.692 71.4317C181.611 71.3505 181.53 71.2694 181.53 71.1883C181.53 71.1071 181.611 71.1071 181.692 71.1071C182.503 71.5939 183.152 71.1883 183.152 70.2958C183.233 70.2146 183.233 70.1335 183.315 70.2146Z" fill="#3A93CE"/>
  <path d="M187.939 99.2611C188.02 99.1799 188.02 99.1799 188.101 99.1799V101.289C188.02 101.208 187.939 101.127 187.939 100.965C187.777 100.64 187.696 100.316 187.696 99.9913C187.696 99.5856 187.777 99.3422 187.939 99.2611Z" fill="#0072C5"/>
  <path d="M191.185 100.235V103.156L192.402 103.805L192.321 104.454L190.455 103.399L190.536 99.829L191.185 100.235Z" fill="white"/>
  <path d="M185.749 96.9891C186.073 97.1514 186.317 97.3948 186.479 97.5571V98.2873C186.236 98.0439 185.992 97.8005 185.749 97.6382C185.586 97.5571 185.505 97.5571 185.424 97.5571C185.343 97.5571 185.343 97.6382 185.343 97.8005C185.343 97.8816 185.343 98.0439 185.424 98.125C185.505 98.2062 185.587 98.3684 185.83 98.6118C186.154 98.9364 186.317 99.1798 186.479 99.5043C186.56 99.6666 186.641 99.91 186.641 100.153C186.641 100.478 186.56 100.721 186.317 100.721C186.073 100.802 185.83 100.721 185.424 100.478C185.1 100.316 184.856 100.072 184.613 99.8289V99.0175C184.856 99.4232 185.181 99.6666 185.424 99.8289C185.587 99.91 185.668 99.9911 185.749 99.91C185.83 99.91 185.83 99.8289 185.83 99.6666C185.83 99.5855 185.83 99.4232 185.749 99.3421C185.668 99.1798 185.505 99.0175 185.262 98.7741C184.775 98.2873 184.532 97.7194 184.532 97.3137C184.532 96.9891 184.613 96.8269 184.856 96.7457C185.1 96.7457 185.424 96.8269 185.749 96.9891Z" fill="white"/>
  <path d="M189.075 101.614C188.913 101.695 188.751 101.695 188.507 101.614C188.345 101.533 188.264 101.452 188.102 101.289V99.1799C188.183 99.1799 188.345 99.1799 188.507 99.2611C188.751 99.4233 188.913 99.5856 189.075 99.9102C189.238 100.235 189.319 100.478 189.319 100.884C189.238 101.208 189.157 101.452 189.075 101.614Z" fill="#3A93CE"/>
  <path d="M189.724 102.263C189.562 102.506 189.319 102.588 188.994 102.506L189.887 103.967L188.994 103.48L188.345 102.263C188.264 102.182 188.102 102.101 188.021 102.02C187.858 101.857 187.696 101.695 187.615 101.533C187.371 101.289 187.209 100.965 187.128 100.64C186.966 100.316 186.966 99.9912 186.966 99.5856C186.966 99.261 187.047 98.9365 187.128 98.6931C187.29 98.4497 187.453 98.3685 187.696 98.3685C187.858 98.3685 187.939 98.3685 188.102 98.4497C188.264 98.4497 188.345 98.5308 188.507 98.6119C188.832 98.7742 189.075 99.0176 189.238 99.261C189.481 99.5856 189.643 99.829 189.724 100.235C189.806 100.64 189.887 100.965 189.887 101.289C189.968 101.695 189.887 102.02 189.724 102.263ZM188.507 101.614C188.751 101.776 188.913 101.776 189.075 101.614C189.156 101.452 189.238 101.208 189.238 100.884C189.238 100.559 189.156 100.235 188.994 99.9101C188.832 99.5856 188.67 99.4233 188.426 99.261C188.264 99.1799 188.183 99.0987 188.021 99.1799C187.939 99.1799 187.858 99.1799 187.858 99.261C187.696 99.3422 187.615 99.5856 187.615 99.9912C187.615 100.316 187.696 100.64 187.858 100.965C187.939 101.046 187.939 101.208 188.021 101.289C188.183 101.371 188.345 101.533 188.507 101.614Z" fill="white"/>
  <path d="M183.315 90.6606C183.315 91.7965 185.425 93.9061 188.102 95.5288V98.4496C187.94 98.4496 187.859 98.3685 187.696 98.3685C187.453 98.3685 187.291 98.4496 187.128 98.6931C186.966 98.9365 186.966 99.261 186.966 99.5855C186.966 99.9101 187.047 100.235 187.128 100.64C187.21 100.965 187.453 101.289 187.615 101.533C187.777 101.695 187.859 101.857 188.021 102.02V106.401C185.343 104.859 183.234 102.669 183.234 101.533L183.315 90.6606ZM186.317 100.721C186.56 100.64 186.642 100.478 186.642 100.153C186.642 99.9101 186.56 99.6667 186.479 99.5044C186.317 99.261 186.155 98.9365 185.83 98.6119C185.587 98.3685 185.506 98.2062 185.425 98.1251C185.343 98.044 185.343 97.8817 185.343 97.8006C185.343 97.6383 185.343 97.6383 185.425 97.5572C185.506 97.5572 185.587 97.5572 185.749 97.6383C185.992 97.8006 186.236 98.044 186.479 98.2874V97.5572C186.236 97.3137 185.992 97.1515 185.749 96.9892C185.425 96.8269 185.1 96.7458 184.938 96.8269C184.694 96.9081 184.613 97.0703 184.613 97.3949C184.613 97.8006 184.857 98.2874 185.343 98.8553C185.587 99.0987 185.749 99.261 185.83 99.4233C185.911 99.5044 185.911 99.6667 185.911 99.7478C185.911 99.9101 185.911 99.9101 185.83 99.9912C185.749 99.9912 185.587 99.9912 185.506 99.9101C185.181 99.7478 184.938 99.4233 184.694 99.0987V99.9101C184.938 100.153 185.181 100.397 185.506 100.559C185.83 100.721 186.074 100.803 186.317 100.721Z" fill="#0072C5"/>
  <path d="M193.132 96.2592C193.132 96.3403 193.132 96.3403 193.132 96.2592C193.132 97.3951 190.942 97.0705 188.183 95.529L188.102 95.4478C185.424 93.9063 183.315 91.7156 183.315 90.5797C183.315 89.4438 185.506 89.7683 188.264 91.3911C190.942 93.0138 193.132 95.1233 193.132 96.2592ZM188.264 94.7176C190.455 95.9346 192.159 96.3403 192.159 95.6101C192.159 94.8799 190.455 93.2572 188.264 91.959C186.074 90.742 184.37 90.3363 184.37 91.0665C184.289 91.8779 186.074 93.5006 188.264 94.7176Z" fill="white"/>
  <path d="M192.158 95.61C192.158 96.3402 190.373 95.9345 188.264 94.7175C186.073 93.5005 184.369 91.8778 184.369 91.0664C184.369 91.3909 184.694 91.8778 185.18 92.3646C185.911 92.4457 187.047 92.9325 188.264 93.6627C189.481 94.393 190.617 95.2854 191.347 95.9345C191.834 96.0157 192.158 95.9345 192.158 95.61Z" fill="#3A93CE"/>
  <path d="M188.264 91.959C190.454 93.1761 192.158 94.7988 192.158 95.6101C192.158 95.9347 191.834 96.0158 191.347 95.9347C190.617 95.2045 189.481 94.312 188.264 93.6629C187.047 92.9327 185.911 92.4459 185.18 92.3647C184.694 91.8779 184.369 91.3911 184.369 91.0665C184.288 90.3363 186.073 90.742 188.264 91.959Z" fill="#0072C5"/>
  <path d="M193.132 96.3402V107.293C193.132 107.861 192.645 108.024 191.834 107.943C190.942 107.861 189.562 107.293 188.102 106.482L188.021 106.401V102.02C188.102 102.101 188.264 102.182 188.345 102.263L188.994 103.48L189.887 103.967L188.994 102.506C189.319 102.588 189.562 102.506 189.725 102.263C189.887 102.02 189.968 101.695 189.968 101.289C189.968 100.965 189.887 100.559 189.806 100.235C189.643 99.9101 189.481 99.5856 189.319 99.261C189.076 99.0176 188.832 98.7742 188.589 98.612C188.426 98.5308 188.264 98.4497 188.183 98.4497V95.5288L188.264 95.6099C190.942 97.1515 193.132 97.4761 193.132 96.3402ZM192.321 104.454V103.805L191.185 103.156V100.235L190.455 99.829V103.399L192.321 104.454Z" fill="#3A93CE"/>
  <path d="M191.834 107.862C190.942 107.78 189.643 107.294 188.183 106.401L188.102 106.32C189.643 107.294 190.942 107.78 191.834 107.862Z" fill="#0072C5"/>
  <path d="M161.733 69.3223L147.128 62.0201" stroke="#0078D4" stroke-width="0.5" stroke-miterlimit="10"/>
  <path d="M145.181 76.3V63.2372" stroke="#0078D4" stroke-width="0.5" stroke-miterlimit="10"/>
  <path opacity="0.4" d="M151.266 63.0746L144.938 59.5046L139.015 63.0746L145.181 66.5634L151.266 63.0746Z" fill="#1F1D21"/>
  <path opacity="0.4" d="M149.076 80.2754L145.262 78.0847L141.449 80.2754L145.181 82.466L149.076 80.2754Z" fill="#1F1D21"/>
  <path d="M141.449 75.0829L145.262 72.8922L148.995 75.0829L145.181 77.2735L141.449 75.0829Z" fill="#50E6FF"/>
  <path d="M145.343 77.2734V81.6547L141.449 79.4641V75.0828L145.343 77.2734Z" fill="#1D4A79"/>
  <path d="M145.343 77.2734L149.075 75.0828V79.4641L145.343 81.6547V77.2734Z" fill="#243A5E"/>
  <path d="M141.449 75.0828L142.017 74.7583C144.045 73.5412 146.479 73.5412 148.508 74.6771L149.076 75.0828L145.343 77.2735L141.449 75.0828Z" fill="#156AB3"/>
  <path d="M141.855 75.3262V79.3018L145.343 81.3302V81.7359L141.449 79.4641V75.0828L141.855 75.3262Z" fill="#1E9FE0"/>
  <path d="M145.343 81.3303V81.7359L149.075 79.5453V79.0585L145.343 81.3303Z" fill="#0062AD"/>
  <path d="M143.964 77.7602V78.0037L142.666 77.2734V77.03L143.964 77.7602Z" fill="#1E9FE0"/>
  <path d="M144.37 77.9226V78.2471L144.126 78.0848V77.8414L144.37 77.9226Z" fill="#EBEBEB"/>
  <path d="M143.964 78.3282V78.5717L142.666 77.8414V77.598L143.964 78.3282Z" fill="#1E9FE0"/>
  <path d="M144.37 78.4905V78.7339L144.126 78.5716V78.2471L144.37 78.4905Z" fill="#EBEBEB"/>
  <path d="M149.806 104.616C149.238 104.291 149.238 103.805 149.806 103.48C150.374 103.156 151.185 103.156 151.753 103.48C152.321 103.805 152.321 104.291 151.753 104.616C151.266 104.941 150.374 104.941 149.806 104.616Z" fill="url(#paint15_linear)"/>
  <path d="M154.431 107.293C153.863 106.969 153.863 106.482 154.431 106.158C154.999 105.833 155.81 105.833 156.378 106.158C156.946 106.482 156.946 106.969 156.378 107.293C155.81 107.537 154.917 107.537 154.431 107.293Z" fill="url(#paint16_linear)"/>
  <path d="M154.35 101.938C153.782 101.614 153.782 101.127 154.35 100.802C154.917 100.478 155.729 100.478 156.297 100.802C156.865 101.127 156.865 101.614 156.297 101.938C155.81 102.263 154.917 102.263 154.35 101.938Z" fill="url(#paint17_linear)"/>
  <path d="M154.674 101.776C154.268 101.533 154.268 101.208 154.674 101.046C154.998 100.803 155.648 100.803 155.972 101.046C156.378 101.289 156.378 101.614 155.972 101.776C155.648 102.02 155.08 102.02 154.674 101.776Z" fill="url(#paint18_linear)"/>
  <path d="M158.974 104.616C158.406 104.291 158.406 103.805 158.974 103.48C159.542 103.156 160.353 103.156 160.921 103.48C161.489 103.805 161.489 104.291 160.921 104.616C160.353 104.941 159.542 104.941 158.974 104.616Z" fill="url(#paint19_linear)"/>
  <path d="M150.13 104.454C149.725 104.21 149.725 103.886 150.13 103.723C150.455 103.48 151.104 103.48 151.428 103.723C151.753 103.967 151.834 104.291 151.428 104.454C151.104 104.616 150.536 104.616 150.13 104.454Z" fill="url(#paint20_linear)"/>
  <path d="M159.298 104.454C158.974 104.21 158.892 103.886 159.298 103.723C159.704 103.561 160.272 103.48 160.596 103.723C160.921 103.967 161.002 104.291 160.596 104.454C160.272 104.616 159.623 104.616 159.298 104.454Z" fill="url(#paint21_linear)"/>
  <path d="M154.755 107.05C154.431 106.807 154.431 106.482 154.755 106.32C155.08 106.076 155.729 106.076 156.053 106.32C156.378 106.563 156.378 106.888 156.053 107.05C155.648 107.293 155.08 107.293 154.755 107.05Z" fill="url(#paint22_linear)"/>
  <path opacity="0.4" d="M142.341 117.841L133.011 123.358L124.978 119.058L134.877 113.541L142.341 117.841Z" fill="#1F1D21"/>
  <path opacity="0.2" d="M143.234 118.328L133.903 123.764L125.871 119.464L135.769 113.947L143.234 118.328Z" fill="#1F1D21"/>
  <path d="M142.179 112.973L133.011 118.328L125.952 114.514L135.12 109.16L142.179 112.973Z" fill="#84ECFD"/>
  <path d="M142.179 112.973V117.192L133.01 122.547V118.328L142.179 112.973Z" fill="url(#paint23_linear)"/>
  <path d="M133.011 118.247V122.466L125.952 118.653V114.433L133.011 118.247Z" fill="url(#paint24_linear)"/>
  <path d="M142.179 108.105L133.011 113.46L125.952 109.646L135.12 104.292L142.179 108.105Z" fill="#84ECFD"/>
  <path d="M142.179 108.105V112.324L133.01 117.679V113.46L142.179 108.105Z" fill="url(#paint25_linear)"/>
  <path d="M133.011 113.46V117.679L125.952 113.865V109.646L133.011 113.46Z" fill="url(#paint26_linear)"/>
  <path d="M142.179 103.318L133.011 108.673L125.952 104.859L135.12 99.5044L142.179 103.318Z" fill="#84ECFD"/>
  <path d="M142.179 103.318V107.537L133.01 112.892V108.673L142.179 103.318Z" fill="url(#paint27_linear)"/>
  <path d="M133.011 108.592V112.811L125.952 108.997V104.778L133.011 108.592Z" fill="url(#paint28_linear)"/>
  <path d="M142.179 98.4498L133.011 103.805L125.952 99.9914L135.12 94.6365L142.179 98.4498Z" fill="#84ECFD"/>
  <path d="M142.179 98.4498V102.669L133.01 108.024V103.805L142.179 98.4498Z" fill="url(#paint29_linear)"/>
  <path d="M133.011 103.805V108.024L125.952 104.21V99.9913L133.011 103.805Z" fill="url(#paint30_linear)"/>
  <path d="M135.282 119.87V119.626L135.039 119.789V120.032L135.282 119.87Z" fill="white"/>
  <path d="M135.282 119.464V119.221L135.039 119.383V119.626L135.282 119.464Z" fill="white"/>
  <path d="M135.282 119.058V118.815L135.039 118.896V119.139L135.282 119.058Z" fill="white"/>
  <path d="M135.282 118.734V118.49L135.039 118.571V118.815L135.282 118.734Z" fill="white"/>
  <path d="M134.958 120.032V119.788L134.714 119.951V120.194L134.958 120.032Z" fill="white"/>
  <path d="M134.958 119.626V119.383L134.714 119.545V119.788L134.958 119.626Z" fill="white"/>
  <path d="M134.958 119.221V118.977L134.714 119.139V119.383L134.958 119.221Z" fill="white"/>
  <path d="M134.958 118.815V118.571L134.714 118.734V118.977L134.958 118.815Z" fill="white"/>
  <path d="M134.552 120.194V119.951L134.309 120.113V120.356L134.552 120.194Z" fill="white"/>
  <path d="M134.552 119.87V119.626L134.309 119.789V120.032L134.552 119.87Z" fill="white"/>
  <path d="M134.552 119.464V119.221L134.309 119.383V119.626L134.552 119.464Z" fill="white"/>
  <path d="M134.552 119.058V118.815L134.309 118.977V119.22L134.552 119.058Z" fill="white"/>
  <path d="M134.228 120.437V120.194L133.984 120.356V120.6L134.228 120.437Z" fill="white"/>
  <path d="M134.228 120.032V119.788L133.984 119.951V120.194L134.228 120.032Z" fill="white"/>
  <path d="M134.228 119.626V119.383L133.984 119.545V119.788L134.228 119.626Z" fill="white"/>
  <path d="M134.228 119.221V118.977L133.984 119.139V119.383L134.228 119.221Z" fill="white"/>
  <path d="M134.957 108.835L135.282 108.592V108.997L134.957 109.241V108.835ZM135.201 108.754L135.12 108.835V108.916L135.201 108.835V108.754Z" fill="white"/>
  <path d="M134.957 109.322L135.282 109.079V109.484L134.957 109.728V109.322ZM135.201 109.322L135.12 109.403V109.484L135.201 109.403V109.322Z" fill="white"/>
  <path d="M134.957 109.89L135.282 109.646V110.052L134.957 110.295V109.89ZM135.201 109.89L135.12 109.971V110.052L135.201 109.971V109.89Z" fill="white"/>
  <path d="M134.471 110.133L134.795 109.89V110.296L134.471 110.539V110.133ZM134.714 110.133L134.633 110.214V110.296L134.714 110.214V110.133Z" fill="white"/>
  <path d="M134.471 109.079L134.795 108.835V109.241L134.471 109.484V109.079ZM134.714 109.079L134.633 109.16V109.241L134.714 109.16V109.079Z" fill="white"/>
  <path d="M134.471 109.566L134.795 109.322V109.728L134.471 109.971V109.566ZM134.714 109.566L134.633 109.647V109.728L134.714 109.647V109.566Z" fill="white"/>
  <path d="M133.984 109.322L134.309 109.079V109.484L133.984 109.728V109.322ZM134.228 109.322L134.146 109.403V109.484L134.228 109.403V109.322Z" fill="white"/>
  <path d="M133.984 109.89L134.309 109.646V110.052L133.984 110.295V109.89ZM134.228 109.89L134.146 109.971V110.052L134.228 109.971V109.89Z" fill="white"/>
  <path d="M133.984 110.377L134.309 110.133V110.539L133.984 110.782V110.377ZM134.228 110.377L134.146 110.458V110.539L134.228 110.458V110.377Z" fill="white"/>
  <path d="M135.282 114.839V114.433L134.957 114.677V115.083L135.282 114.839Z" fill="white"/>
  <path d="M135.282 113.785V113.379L134.957 113.622V114.028L135.282 113.785Z" fill="white"/>
  <path d="M135.282 114.271V113.865L134.957 114.109V114.515L135.282 114.271Z" fill="white"/>
  <path d="M134.795 114.596V114.19L134.471 114.433V114.839L134.795 114.596Z" fill="white"/>
  <path d="M134.795 115.083V114.677L134.471 114.92V115.326L134.795 115.083Z" fill="white"/>
  <path d="M134.795 114.028V113.622L134.471 113.865V114.271L134.795 114.028Z" fill="white"/>
  <path d="M134.309 114.271V113.865L133.984 114.109V114.515L134.309 114.271Z" fill="white"/>
  <path d="M134.309 114.839V114.433L133.984 114.677V115.083L134.309 114.839Z" fill="white"/>
  <path d="M134.39 115.326V114.92L134.066 115.164V115.569L134.39 115.326Z" fill="white"/>
  <path d="M134.958 105.184V104.535L134.39 104.86V105.509L134.958 105.184Z" fill="white"/>
  <path d="M133.984 104.616L135.282 103.886V105.346L133.984 106.076V104.616ZM135.039 104.291L134.228 104.778V105.671L135.039 105.184V104.291Z" fill="white"/>
  <path opacity="0.4" d="M256.012 50.0932L249.684 46.5232L243.761 50.0932L249.927 53.582L256.012 50.0932Z" fill="#1F1D21"/>
  <path d="M255.282 42.7097L250.008 45.874L244.572 42.7909L249.846 39.6266L255.282 42.7097Z" fill="#1BA5EA"/>
  <path d="M255.282 42.7096L255.363 49.0382L250.008 52.2024V45.8739L255.282 42.7096Z" fill="#0078D4"/>
  <path d="M250.008 45.9549V52.2835L244.572 49.2814V42.9529L250.008 45.9549Z" fill="#32B0E7"/>
  <path d="M248.791 49.9309L246.032 48.3893V45.3062L248.791 46.8477V49.9309ZM246.844 46.6855V47.9025L247.899 48.5516V47.3345L246.844 46.6855Z" fill="white"/>
  <path d="M145.1 59.18L139.42 56.178L145.019 53.176L150.698 56.0969L145.1 59.18Z" fill="#50E6FF" fill-opacity="0.6" stroke="#50E6FF" stroke-width="0.4988" stroke-linejoin="round"/>
  <path d="M139.42 56.178L139.502 62.182L145.181 65.1029L145.1 59.0989L139.42 56.178Z" fill="#50E6FF" fill-opacity="0.3" stroke="#50E6FF" stroke-width="0.4988" stroke-linejoin="round"/>
  <path d="M145.1 59.18L145.181 65.184L150.698 62.182V56.178L145.1 59.18Z" fill="#50E6FF" fill-opacity="0.5" stroke="#50E6FF" stroke-width="0.4988" stroke-linejoin="round"/>
  <path d="M148.507 60.8842V59.8295L147.615 60.3974V61.371L148.507 60.8842Z" fill="white"/>
  <path d="M146.885 59.9912L149.238 58.6119V61.2894L146.885 62.6687V59.9912ZM148.832 59.4233L147.372 60.3158V62.0196L148.832 61.1271V59.4233Z" fill="white"/>
  <path d="M155.404 65.2656L159.298 63.1561L163.112 65.2656L159.217 67.294L155.404 65.2656Z" fill="#50E6FF"/>
  <path d="M159.217 67.2937L159.136 71.5128L163.031 69.4032L163.112 65.1842L159.217 67.2937Z" fill="#156AB3"/>
  <path d="M155.404 65.2655V69.4845L159.136 71.5941L159.217 67.375L155.404 65.2655Z" fill="#1E9FE0"/>
  <path d="M160.596 68.0242V68.3487L162.219 67.3751V67.0505L160.596 68.0242Z" fill="#CDCDD0"/>
  <path d="M160.11 68.2674V68.5919L160.353 68.4296V68.1051L160.11 68.2674Z" fill="#EBEBEB"/>
  <path d="M160.596 68.6731V68.9977L162.219 68.024V67.7806L160.596 68.6731Z" fill="#CDCDD0"/>
  <path d="M160.11 68.9167V69.2412L160.353 69.0789V68.7544L160.11 68.9167Z" fill="#EBEBEB"/>
  <defs>
    <linearGradient id="paint0_linear" x1="170.997" y1="154.043" x2="211.4" y2="84.0627" gradientUnits="userSpaceOnUse">
      <stop stop-color="#50E6FF"/>
      <stop offset="1" stop-color="#0078D4"/>
    </linearGradient>
    <linearGradient id="paint1_linear" x1="172.881" y1="151.095" x2="209.429" y2="87.7915" gradientUnits="userSpaceOnUse">
      <stop stop-color="#50E6FF"/>
      <stop offset="1" stop-color="#0078D4"/>
    </linearGradient>
    <linearGradient id="paint2_linear" x1="174.96" y1="147.989" x2="207.909" y2="90.9196" gradientUnits="userSpaceOnUse">
      <stop stop-color="#50E6FF"/>
      <stop offset="1" stop-color="#0078D4"/>
    </linearGradient>
    <linearGradient id="paint3_linear" x1="176.429" y1="144.859" x2="205.896" y2="93.8199" gradientUnits="userSpaceOnUse">
      <stop stop-color="#50E6FF"/>
      <stop offset="1" stop-color="#0078D4"/>
    </linearGradient>
    <linearGradient id="paint4_linear" x1="178.314" y1="141.509" x2="203.975" y2="97.0639" gradientUnits="userSpaceOnUse">
      <stop stop-color="#50E6FF"/>
      <stop offset="1" stop-color="#0078D4"/>
    </linearGradient>
    <linearGradient id="paint5_linear" x1="180.086" y1="138.4" x2="202.123" y2="100.231" gradientUnits="userSpaceOnUse">
      <stop stop-color="#50E6FF"/>
      <stop offset="1" stop-color="#0078D4"/>
    </linearGradient>
    <linearGradient id="paint6_linear" x1="257.204" y1="101.745" x2="213.564" y2="148.768" gradientUnits="userSpaceOnUse">
      <stop stop-color="#4DC1EA"/>
      <stop offset="0.585" stop-color="#0078D4"/>
    </linearGradient>
    <linearGradient id="paint7_linear" x1="262.881" y1="107.014" x2="219.241" y2="154.036" gradientUnits="userSpaceOnUse">
      <stop stop-color="#4DC1EA"/>
      <stop offset="0.585" stop-color="#0078D4"/>
    </linearGradient>
    <linearGradient id="paint8_linear" x1="260.425" y1="104.734" x2="216.785" y2="151.757" gradientUnits="userSpaceOnUse">
      <stop stop-color="#4DC1EA"/>
      <stop offset="0.585" stop-color="#0078D4"/>
    </linearGradient>
    <linearGradient id="paint9_linear" x1="259.677" y1="104.041" x2="216.037" y2="151.063" gradientUnits="userSpaceOnUse">
      <stop stop-color="#4DC1EA"/>
      <stop offset="0.585" stop-color="#0078D4"/>
    </linearGradient>
    <linearGradient id="paint10_linear" x1="258.94" y1="103.357" x2="215.3" y2="150.379" gradientUnits="userSpaceOnUse">
      <stop stop-color="#4DC1EA"/>
      <stop offset="0.585" stop-color="#0078D4"/>
    </linearGradient>
    <linearGradient id="paint11_linear" x1="256.467" y1="101.061" x2="212.828" y2="148.084" gradientUnits="userSpaceOnUse">
      <stop stop-color="#4DC1EA"/>
      <stop offset="0.585" stop-color="#0078D4"/>
    </linearGradient>
    <linearGradient id="paint12_linear" x1="257.951" y1="102.439" x2="214.311" y2="149.461" gradientUnits="userSpaceOnUse">
      <stop stop-color="#4DC1EA"/>
      <stop offset="0.585" stop-color="#0078D4"/>
    </linearGradient>
    <linearGradient id="paint13_linear" x1="261.397" y1="105.637" x2="217.757" y2="152.659" gradientUnits="userSpaceOnUse">
      <stop stop-color="#4DC1EA"/>
      <stop offset="0.585" stop-color="#0078D4"/>
    </linearGradient>
    <linearGradient id="paint14_linear" x1="262.134" y1="106.32" x2="218.495" y2="153.343" gradientUnits="userSpaceOnUse">
      <stop stop-color="#4DC1EA"/>
      <stop offset="0.585" stop-color="#0078D4"/>
    </linearGradient>
    <linearGradient id="paint15_linear" x1="157.271" y1="97.0583" x2="122.496" y2="134.529" gradientUnits="userSpaceOnUse">
      <stop stop-color="#4DC1EA"/>
      <stop offset="0.585" stop-color="#0078D4"/>
    </linearGradient>
    <linearGradient id="paint16_linear" x1="161.065" y1="100.58" x2="126.291" y2="138.05" gradientUnits="userSpaceOnUse">
      <stop stop-color="#4DC1EA"/>
      <stop offset="0.585" stop-color="#0078D4"/>
    </linearGradient>
    <linearGradient id="paint17_linear" x1="158.398" y1="98.1037" x2="123.623" y2="135.574" gradientUnits="userSpaceOnUse">
      <stop stop-color="#4DC1EA"/>
      <stop offset="0.585" stop-color="#0078D4"/>
    </linearGradient>
    <linearGradient id="paint18_linear" x1="157.416" y1="99.1617" x2="133.81" y2="124.597" gradientUnits="userSpaceOnUse">
      <stop stop-color="#50E6FF"/>
      <stop offset="0.7998" stop-color="#0078D4"/>
    </linearGradient>
    <linearGradient id="paint19_linear" x1="162.192" y1="101.625" x2="127.417" y2="139.096" gradientUnits="userSpaceOnUse">
      <stop stop-color="#4DC1EA"/>
      <stop offset="0.585" stop-color="#0078D4"/>
    </linearGradient>
    <linearGradient id="paint20_linear" x1="155.186" y1="99.3044" x2="131.595" y2="124.725" gradientUnits="userSpaceOnUse">
      <stop stop-color="#50E6FF"/>
      <stop offset="0.7998" stop-color="#0078D4"/>
    </linearGradient>
    <linearGradient id="paint21_linear" x1="161.467" y1="102.405" x2="137.873" y2="127.828" gradientUnits="userSpaceOnUse">
      <stop stop-color="#50E6FF"/>
      <stop offset="0.7998" stop-color="#0078D4"/>
    </linearGradient>
    <linearGradient id="paint22_linear" x1="159.181" y1="102.61" x2="135.947" y2="127.645" gradientUnits="userSpaceOnUse">
      <stop stop-color="#50E6FF"/>
      <stop offset="0.7998" stop-color="#0078D4"/>
    </linearGradient>
    <linearGradient id="paint23_linear" x1="131.109" y1="102.371" x2="139.623" y2="122.583" gradientUnits="userSpaceOnUse">
      <stop stop-color="#50E6FF"/>
      <stop offset="0.7998" stop-color="#0078D4"/>
    </linearGradient>
    <linearGradient id="paint24_linear" x1="129.804" y1="103.216" x2="129.308" y2="124.172" gradientUnits="userSpaceOnUse">
      <stop stop-color="#50E6FF"/>
      <stop offset="0.7998" stop-color="#0078D4"/>
    </linearGradient>
    <linearGradient id="paint25_linear" x1="132.842" y1="101.641" x2="141.357" y2="121.853" gradientUnits="userSpaceOnUse">
      <stop stop-color="#50E6FF"/>
      <stop offset="0.7998" stop-color="#0078D4"/>
    </linearGradient>
    <linearGradient id="paint26_linear" x1="129.689" y1="103.213" x2="129.194" y2="124.169" gradientUnits="userSpaceOnUse">
      <stop stop-color="#50E6FF"/>
      <stop offset="0.7998" stop-color="#0078D4"/>
    </linearGradient>
    <linearGradient id="paint27_linear" x1="134.57" y1="100.913" x2="143.085" y2="121.125" gradientUnits="userSpaceOnUse">
      <stop stop-color="#50E6FF"/>
      <stop offset="0.7998" stop-color="#0078D4"/>
    </linearGradient>
    <linearGradient id="paint28_linear" x1="129.575" y1="103.211" x2="129.079" y2="124.167" gradientUnits="userSpaceOnUse">
      <stop stop-color="#50E6FF"/>
      <stop offset="0.7998" stop-color="#0078D4"/>
    </linearGradient>
    <linearGradient id="paint29_linear" x1="136.288" y1="100.19" x2="144.802" y2="120.402" gradientUnits="userSpaceOnUse">
      <stop stop-color="#50E6FF"/>
      <stop offset="0.7998" stop-color="#0078D4"/>
    </linearGradient>
    <linearGradient id="paint30_linear" x1="129.462" y1="103.208" x2="128.966" y2="124.164" gradientUnits="userSpaceOnUse">
      <stop stop-color="#50E6FF"/>
      <stop offset="0.7998" stop-color="#0078D4"/>
    </linearGradient>
  </defs>
</svg>
